<mxfile host="Electron" agent="Mozilla/5.0 (Macintosh; Intel Mac OS X 10_15_7) AppleWebKit/537.36 (KHTML, like Gecko) draw.io/25.0.2 Chrome/128.0.6613.186 Electron/32.2.5 Safari/537.36" version="25.0.2" pages="2">
  <diagram id="HOqqygrHyT9kQMDpesm8" name="Consumption">
    <mxGraphModel dx="2522" dy="1466" grid="1" gridSize="10" guides="1" tooltips="1" connect="1" arrows="1" fold="1" page="1" pageScale="1" pageWidth="3300" pageHeight="2339" math="0" shadow="0">
      <root>
        <mxCell id="0" />
        <mxCell id="1" parent="0" />
        <mxCell id="rOZAjXX4fkMLOa1OgQha-16" value="FeatureView" style="swimlane;fontStyle=1;align=center;verticalAlign=top;childLayout=stackLayout;horizontal=1;startSize=26;horizontalStack=0;resizeParent=1;resizeParentMax=0;resizeLast=0;collapsible=1;marginBottom=0;" parent="1" vertex="1">
          <mxGeometry x="720" y="280" width="160" height="242" as="geometry" />
        </mxCell>
        <mxCell id="IcMY7LW6kldTUdwqkgv4-2" value="+ name" style="text;strokeColor=none;fillColor=none;align=left;verticalAlign=top;spacingLeft=4;spacingRight=4;overflow=hidden;rotatable=0;points=[[0,0.5],[1,0.5]];portConstraint=eastwest;" parent="rOZAjXX4fkMLOa1OgQha-16" vertex="1">
          <mxGeometry y="26" width="160" height="26" as="geometry" />
        </mxCell>
        <mxCell id="rOZAjXX4fkMLOa1OgQha-17" value="+ source" style="text;strokeColor=none;fillColor=none;align=left;verticalAlign=top;spacingLeft=4;spacingRight=4;overflow=hidden;rotatable=0;points=[[0,0.5],[1,0.5]];portConstraint=eastwest;" parent="rOZAjXX4fkMLOa1OgQha-16" vertex="1">
          <mxGeometry y="52" width="160" height="26" as="geometry" />
        </mxCell>
        <mxCell id="IcMY7LW6kldTUdwqkgv4-3" value="+ entities" style="text;strokeColor=none;fillColor=none;align=left;verticalAlign=top;spacingLeft=4;spacingRight=4;overflow=hidden;rotatable=0;points=[[0,0.5],[1,0.5]];portConstraint=eastwest;" parent="rOZAjXX4fkMLOa1OgQha-16" vertex="1">
          <mxGeometry y="78" width="160" height="26" as="geometry" />
        </mxCell>
        <mxCell id="ZiZSVGNA6jYtWNyjr4ja-19" value="+ schema/fields" style="text;strokeColor=none;fillColor=none;align=left;verticalAlign=top;spacingLeft=4;spacingRight=4;overflow=hidden;rotatable=0;points=[[0,0.5],[1,0.5]];portConstraint=eastwest;" parent="rOZAjXX4fkMLOa1OgQha-16" vertex="1">
          <mxGeometry y="104" width="160" height="26" as="geometry" />
        </mxCell>
        <mxCell id="ZiZSVGNA6jYtWNyjr4ja-70" value="+ ttl" style="text;strokeColor=none;fillColor=none;align=left;verticalAlign=top;spacingLeft=4;spacingRight=4;overflow=hidden;rotatable=0;points=[[0,0.5],[1,0.5]];portConstraint=eastwest;fontSize=12;" parent="rOZAjXX4fkMLOa1OgQha-16" vertex="1">
          <mxGeometry y="130" width="160" height="26" as="geometry" />
        </mxCell>
        <mxCell id="ZiZSVGNA6jYtWNyjr4ja-71" value="+ online" style="text;strokeColor=none;fillColor=none;align=left;verticalAlign=top;spacingLeft=4;spacingRight=4;overflow=hidden;rotatable=0;points=[[0,0.5],[1,0.5]];portConstraint=eastwest;fontSize=12;" parent="rOZAjXX4fkMLOa1OgQha-16" vertex="1">
          <mxGeometry y="156" width="160" height="26" as="geometry" />
        </mxCell>
        <mxCell id="rOZAjXX4fkMLOa1OgQha-18" value="" style="line;strokeWidth=1;fillColor=none;align=left;verticalAlign=middle;spacingTop=-1;spacingLeft=3;spacingRight=3;rotatable=0;labelPosition=right;points=[];portConstraint=eastwest;strokeColor=inherit;" parent="rOZAjXX4fkMLOa1OgQha-16" vertex="1">
          <mxGeometry y="182" width="160" height="8" as="geometry" />
        </mxCell>
        <mxCell id="rOZAjXX4fkMLOa1OgQha-19" value="+ get_online_features" style="text;strokeColor=none;fillColor=none;align=left;verticalAlign=top;spacingLeft=4;spacingRight=4;overflow=hidden;rotatable=0;points=[[0,0.5],[1,0.5]];portConstraint=eastwest;" parent="rOZAjXX4fkMLOa1OgQha-16" vertex="1">
          <mxGeometry y="190" width="160" height="26" as="geometry" />
        </mxCell>
        <mxCell id="IcMY7LW6kldTUdwqkgv4-1" value="+ get_offline_features" style="text;strokeColor=none;fillColor=none;align=left;verticalAlign=top;spacingLeft=4;spacingRight=4;overflow=hidden;rotatable=0;points=[[0,0.5],[1,0.5]];portConstraint=eastwest;" parent="rOZAjXX4fkMLOa1OgQha-16" vertex="1">
          <mxGeometry y="216" width="160" height="26" as="geometry" />
        </mxCell>
        <mxCell id="IcMY7LW6kldTUdwqkgv4-4" value="Entity" style="swimlane;fontStyle=1;align=center;verticalAlign=top;childLayout=stackLayout;horizontal=1;startSize=26;horizontalStack=0;resizeParent=1;resizeParentMax=0;resizeLast=0;collapsible=1;marginBottom=0;" parent="1" vertex="1">
          <mxGeometry x="1000" y="420" width="160" height="78" as="geometry" />
        </mxCell>
        <mxCell id="IcMY7LW6kldTUdwqkgv4-8" value="+ join_key" style="text;strokeColor=none;fillColor=none;align=left;verticalAlign=top;spacingLeft=4;spacingRight=4;overflow=hidden;rotatable=0;points=[[0,0.5],[1,0.5]];portConstraint=eastwest;" parent="IcMY7LW6kldTUdwqkgv4-4" vertex="1">
          <mxGeometry y="26" width="160" height="26" as="geometry" />
        </mxCell>
        <mxCell id="IcMY7LW6kldTUdwqkgv4-5" value="+ name" style="text;strokeColor=none;fillColor=none;align=left;verticalAlign=top;spacingLeft=4;spacingRight=4;overflow=hidden;rotatable=0;points=[[0,0.5],[1,0.5]];portConstraint=eastwest;" parent="IcMY7LW6kldTUdwqkgv4-4" vertex="1">
          <mxGeometry y="52" width="160" height="26" as="geometry" />
        </mxCell>
        <mxCell id="IcMY7LW6kldTUdwqkgv4-9" value="DataSource" style="swimlane;fontStyle=1;align=center;verticalAlign=top;childLayout=stackLayout;horizontal=1;startSize=26;horizontalStack=0;resizeParent=1;resizeParentMax=0;resizeLast=0;collapsible=1;marginBottom=0;" parent="1" vertex="1">
          <mxGeometry x="1000" y="280" width="240" height="112" as="geometry" />
        </mxCell>
        <mxCell id="IcMY7LW6kldTUdwqkgv4-10" value="+ table" style="text;strokeColor=none;fillColor=none;align=left;verticalAlign=top;spacingLeft=4;spacingRight=4;overflow=hidden;rotatable=0;points=[[0,0.5],[1,0.5]];portConstraint=eastwest;" parent="IcMY7LW6kldTUdwqkgv4-9" vertex="1">
          <mxGeometry y="26" width="240" height="26" as="geometry" />
        </mxCell>
        <mxCell id="ZiZSVGNA6jYtWNyjr4ja-72" value="+ timestamp_field" style="text;strokeColor=none;fillColor=none;align=left;verticalAlign=top;spacingLeft=4;spacingRight=4;overflow=hidden;rotatable=0;points=[[0,0.5],[1,0.5]];portConstraint=eastwest;fontSize=12;" parent="IcMY7LW6kldTUdwqkgv4-9" vertex="1">
          <mxGeometry y="52" width="240" height="26" as="geometry" />
        </mxCell>
        <mxCell id="IcMY7LW6kldTUdwqkgv4-11" value="" style="line;strokeWidth=1;fillColor=none;align=left;verticalAlign=middle;spacingTop=-1;spacingLeft=3;spacingRight=3;rotatable=0;labelPosition=right;points=[];portConstraint=eastwest;strokeColor=inherit;" parent="IcMY7LW6kldTUdwqkgv4-9" vertex="1">
          <mxGeometry y="78" width="240" height="8" as="geometry" />
        </mxCell>
        <mxCell id="IcMY7LW6kldTUdwqkgv4-12" value="+ get_table_column_names_and_types" style="text;strokeColor=none;fillColor=none;align=left;verticalAlign=top;spacingLeft=4;spacingRight=4;overflow=hidden;rotatable=0;points=[[0,0.5],[1,0.5]];portConstraint=eastwest;" parent="IcMY7LW6kldTUdwqkgv4-9" vertex="1">
          <mxGeometry y="86" width="240" height="26" as="geometry" />
        </mxCell>
        <mxCell id="ZiZSVGNA6jYtWNyjr4ja-3" value="Table (Schema)" style="swimlane;fontStyle=1;align=center;verticalAlign=top;childLayout=stackLayout;horizontal=1;startSize=26;horizontalStack=0;resizeParent=1;resizeParentMax=0;resizeLast=0;collapsible=1;marginBottom=0;" parent="1" vertex="1">
          <mxGeometry x="1360" y="280" width="160" height="130" as="geometry" />
        </mxCell>
        <mxCell id="ZiZSVGNA6jYtWNyjr4ja-4" value="+ name" style="text;strokeColor=none;fillColor=none;align=left;verticalAlign=top;spacingLeft=4;spacingRight=4;overflow=hidden;rotatable=0;points=[[0,0.5],[1,0.5]];portConstraint=eastwest;" parent="ZiZSVGNA6jYtWNyjr4ja-3" vertex="1">
          <mxGeometry y="26" width="160" height="26" as="geometry" />
        </mxCell>
        <mxCell id="ZiZSVGNA6jYtWNyjr4ja-52" value="+ event_timestamp column" style="text;strokeColor=none;fillColor=none;align=left;verticalAlign=top;spacingLeft=4;spacingRight=4;overflow=hidden;rotatable=0;points=[[0,0.5],[1,0.5]];portConstraint=eastwest;" parent="ZiZSVGNA6jYtWNyjr4ja-3" vertex="1">
          <mxGeometry y="52" width="160" height="26" as="geometry" />
        </mxCell>
        <mxCell id="ZiZSVGNA6jYtWNyjr4ja-5" value="+ key column" style="text;strokeColor=none;fillColor=none;align=left;verticalAlign=top;spacingLeft=4;spacingRight=4;overflow=hidden;rotatable=0;points=[[0,0.5],[1,0.5]];portConstraint=eastwest;" parent="ZiZSVGNA6jYtWNyjr4ja-3" vertex="1">
          <mxGeometry y="78" width="160" height="26" as="geometry" />
        </mxCell>
        <mxCell id="ZiZSVGNA6jYtWNyjr4ja-20" value="+ feature column*" style="text;strokeColor=none;fillColor=none;align=left;verticalAlign=top;spacingLeft=4;spacingRight=4;overflow=hidden;rotatable=0;points=[[0,0.5],[1,0.5]];portConstraint=eastwest;" parent="ZiZSVGNA6jYtWNyjr4ja-3" vertex="1">
          <mxGeometry y="104" width="160" height="26" as="geometry" />
        </mxCell>
        <mxCell id="ZiZSVGNA6jYtWNyjr4ja-9" value="FeatureService" style="swimlane;fontStyle=1;align=center;verticalAlign=top;childLayout=stackLayout;horizontal=1;startSize=26;horizontalStack=0;resizeParent=1;resizeParentMax=0;resizeLast=0;collapsible=1;marginBottom=0;" parent="1" vertex="1">
          <mxGeometry x="440" y="120" width="160" height="78" as="geometry" />
        </mxCell>
        <mxCell id="ZiZSVGNA6jYtWNyjr4ja-10" value="+ name" style="text;strokeColor=none;fillColor=none;align=left;verticalAlign=top;spacingLeft=4;spacingRight=4;overflow=hidden;rotatable=0;points=[[0,0.5],[1,0.5]];portConstraint=eastwest;" parent="ZiZSVGNA6jYtWNyjr4ja-9" vertex="1">
          <mxGeometry y="26" width="160" height="26" as="geometry" />
        </mxCell>
        <mxCell id="ZiZSVGNA6jYtWNyjr4ja-11" value="+ features" style="text;strokeColor=none;fillColor=none;align=left;verticalAlign=top;spacingLeft=4;spacingRight=4;overflow=hidden;rotatable=0;points=[[0,0.5],[1,0.5]];portConstraint=eastwest;" parent="ZiZSVGNA6jYtWNyjr4ja-9" vertex="1">
          <mxGeometry y="52" width="160" height="26" as="geometry" />
        </mxCell>
        <mxCell id="ZiZSVGNA6jYtWNyjr4ja-16" value="uses" style="endArrow=open;html=1;endSize=12;startArrow=diamondThin;startSize=14;startFill=0;edgeStyle=orthogonalEdgeStyle;rounded=0;" parent="1" source="rOZAjXX4fkMLOa1OgQha-17" target="IcMY7LW6kldTUdwqkgv4-9" edge="1">
          <mxGeometry x="0.1724" y="10" relative="1" as="geometry">
            <mxPoint x="960" y="580" as="sourcePoint" />
            <mxPoint x="1120" y="580" as="targetPoint" />
            <Array as="points">
              <mxPoint x="920" y="345" />
              <mxPoint x="920" y="320" />
            </Array>
            <mxPoint as="offset" />
          </mxGeometry>
        </mxCell>
        <mxCell id="ZiZSVGNA6jYtWNyjr4ja-17" value="1" style="edgeLabel;resizable=0;html=1;align=left;verticalAlign=top;" parent="ZiZSVGNA6jYtWNyjr4ja-16" connectable="0" vertex="1">
          <mxGeometry x="-1" relative="1" as="geometry">
            <mxPoint x="5" as="offset" />
          </mxGeometry>
        </mxCell>
        <mxCell id="ZiZSVGNA6jYtWNyjr4ja-18" value="1" style="edgeLabel;resizable=0;html=1;align=right;verticalAlign=top;" parent="ZiZSVGNA6jYtWNyjr4ja-16" connectable="0" vertex="1">
          <mxGeometry x="1" relative="1" as="geometry">
            <mxPoint x="-10" as="offset" />
          </mxGeometry>
        </mxCell>
        <mxCell id="ZiZSVGNA6jYtWNyjr4ja-21" value="Field" style="swimlane;fontStyle=1;align=center;verticalAlign=top;childLayout=stackLayout;horizontal=1;startSize=26;horizontalStack=0;resizeParent=1;resizeParentMax=0;resizeLast=0;collapsible=1;marginBottom=0;" parent="1" vertex="1">
          <mxGeometry x="1000" y="520" width="160" height="78" as="geometry" />
        </mxCell>
        <mxCell id="ZiZSVGNA6jYtWNyjr4ja-22" value="+ name" style="text;strokeColor=none;fillColor=none;align=left;verticalAlign=top;spacingLeft=4;spacingRight=4;overflow=hidden;rotatable=0;points=[[0,0.5],[1,0.5]];portConstraint=eastwest;" parent="ZiZSVGNA6jYtWNyjr4ja-21" vertex="1">
          <mxGeometry y="26" width="160" height="26" as="geometry" />
        </mxCell>
        <mxCell id="ZiZSVGNA6jYtWNyjr4ja-23" value="+ dtype" style="text;strokeColor=none;fillColor=none;align=left;verticalAlign=top;spacingLeft=4;spacingRight=4;overflow=hidden;rotatable=0;points=[[0,0.5],[1,0.5]];portConstraint=eastwest;" parent="ZiZSVGNA6jYtWNyjr4ja-21" vertex="1">
          <mxGeometry y="52" width="160" height="26" as="geometry" />
        </mxCell>
        <mxCell id="ZiZSVGNA6jYtWNyjr4ja-25" value="has" style="endArrow=open;html=1;endSize=12;startArrow=diamondThin;startSize=14;startFill=0;edgeStyle=orthogonalEdgeStyle;rounded=0;" parent="1" source="IcMY7LW6kldTUdwqkgv4-3" target="IcMY7LW6kldTUdwqkgv4-8" edge="1">
          <mxGeometry x="-0.3478" y="11" relative="1" as="geometry">
            <mxPoint x="890" y="435" as="sourcePoint" />
            <mxPoint x="1010" y="330" as="targetPoint" />
            <Array as="points">
              <mxPoint x="960" y="371" />
              <mxPoint x="960" y="460" />
            </Array>
            <mxPoint as="offset" />
          </mxGeometry>
        </mxCell>
        <mxCell id="ZiZSVGNA6jYtWNyjr4ja-26" value="1" style="edgeLabel;resizable=0;html=1;align=left;verticalAlign=top;" parent="ZiZSVGNA6jYtWNyjr4ja-25" connectable="0" vertex="1">
          <mxGeometry x="-1" relative="1" as="geometry">
            <mxPoint x="5" as="offset" />
          </mxGeometry>
        </mxCell>
        <mxCell id="ZiZSVGNA6jYtWNyjr4ja-27" value="0..n" style="edgeLabel;resizable=0;html=1;align=right;verticalAlign=top;" parent="ZiZSVGNA6jYtWNyjr4ja-25" connectable="0" vertex="1">
          <mxGeometry x="1" relative="1" as="geometry">
            <mxPoint x="-10" as="offset" />
          </mxGeometry>
        </mxCell>
        <mxCell id="ZiZSVGNA6jYtWNyjr4ja-32" value="has" style="endArrow=open;html=1;endSize=12;startArrow=diamondThin;startSize=14;startFill=0;edgeStyle=orthogonalEdgeStyle;rounded=0;" parent="1" source="ZiZSVGNA6jYtWNyjr4ja-19" target="ZiZSVGNA6jYtWNyjr4ja-21" edge="1">
          <mxGeometry x="0.576" y="10" relative="1" as="geometry">
            <mxPoint x="890" y="469.9960000000001" as="sourcePoint" />
            <mxPoint x="1010" y="469.9960000000001" as="targetPoint" />
            <Array as="points">
              <mxPoint x="920" y="397" />
              <mxPoint x="920" y="560" />
            </Array>
            <mxPoint as="offset" />
          </mxGeometry>
        </mxCell>
        <mxCell id="ZiZSVGNA6jYtWNyjr4ja-33" value="1" style="edgeLabel;resizable=0;html=1;align=left;verticalAlign=top;" parent="ZiZSVGNA6jYtWNyjr4ja-32" connectable="0" vertex="1">
          <mxGeometry x="-1" relative="1" as="geometry">
            <mxPoint x="5" as="offset" />
          </mxGeometry>
        </mxCell>
        <mxCell id="ZiZSVGNA6jYtWNyjr4ja-34" value="1" style="edgeLabel;resizable=0;html=1;align=right;verticalAlign=top;" parent="ZiZSVGNA6jYtWNyjr4ja-32" connectable="0" vertex="1">
          <mxGeometry x="1" relative="1" as="geometry">
            <mxPoint x="-10" as="offset" />
          </mxGeometry>
        </mxCell>
        <mxCell id="ZiZSVGNA6jYtWNyjr4ja-40" value="identifies" style="endArrow=open;html=1;endSize=12;startArrow=none;startSize=14;startFill=0;edgeStyle=orthogonalEdgeStyle;rounded=0;" parent="1" source="IcMY7LW6kldTUdwqkgv4-10" target="ZiZSVGNA6jYtWNyjr4ja-4" edge="1">
          <mxGeometry x="-0.1667" y="-1" relative="1" as="geometry">
            <mxPoint x="890" y="435" as="sourcePoint" />
            <mxPoint x="1010" y="330" as="targetPoint" />
            <Array as="points" />
            <mxPoint as="offset" />
          </mxGeometry>
        </mxCell>
        <mxCell id="ZiZSVGNA6jYtWNyjr4ja-41" value="1" style="edgeLabel;resizable=0;html=1;align=left;verticalAlign=top;" parent="ZiZSVGNA6jYtWNyjr4ja-40" connectable="0" vertex="1">
          <mxGeometry x="-1" relative="1" as="geometry">
            <mxPoint x="5" y="-28" as="offset" />
          </mxGeometry>
        </mxCell>
        <mxCell id="ZiZSVGNA6jYtWNyjr4ja-42" value="1" style="edgeLabel;resizable=0;html=1;align=right;verticalAlign=top;" parent="ZiZSVGNA6jYtWNyjr4ja-40" connectable="0" vertex="1">
          <mxGeometry x="1" relative="1" as="geometry">
            <mxPoint x="-17" y="-29" as="offset" />
          </mxGeometry>
        </mxCell>
        <mxCell id="ZiZSVGNA6jYtWNyjr4ja-43" value="identifies" style="endArrow=open;html=1;endSize=12;startArrow=none;startSize=14;startFill=0;edgeStyle=orthogonalEdgeStyle;rounded=0;" parent="1" source="ZiZSVGNA6jYtWNyjr4ja-22" target="ZiZSVGNA6jYtWNyjr4ja-20" edge="1">
          <mxGeometry x="-0.3388" relative="1" as="geometry">
            <mxPoint x="1250" y="340" as="sourcePoint" />
            <mxPoint x="1450" y="394" as="targetPoint" />
            <Array as="points">
              <mxPoint x="1340" y="560" />
              <mxPoint x="1340" y="397" />
            </Array>
            <mxPoint as="offset" />
          </mxGeometry>
        </mxCell>
        <mxCell id="ZiZSVGNA6jYtWNyjr4ja-44" value="1" style="edgeLabel;resizable=0;html=1;align=left;verticalAlign=top;" parent="ZiZSVGNA6jYtWNyjr4ja-43" connectable="0" vertex="1">
          <mxGeometry x="-1" relative="1" as="geometry">
            <mxPoint x="5" y="-25" as="offset" />
          </mxGeometry>
        </mxCell>
        <mxCell id="ZiZSVGNA6jYtWNyjr4ja-45" value="1" style="edgeLabel;resizable=0;html=1;align=right;verticalAlign=top;" parent="ZiZSVGNA6jYtWNyjr4ja-43" connectable="0" vertex="1">
          <mxGeometry x="1" relative="1" as="geometry">
            <mxPoint x="-17" y="-25" as="offset" />
          </mxGeometry>
        </mxCell>
        <mxCell id="ZiZSVGNA6jYtWNyjr4ja-46" value="identifies" style="endArrow=open;html=1;endSize=12;startArrow=none;startSize=14;startFill=0;edgeStyle=orthogonalEdgeStyle;rounded=0;" parent="1" source="IcMY7LW6kldTUdwqkgv4-8" target="ZiZSVGNA6jYtWNyjr4ja-5" edge="1">
          <mxGeometry x="-0.1724" relative="1" as="geometry">
            <mxPoint x="1170" y="610" as="sourcePoint" />
            <mxPoint x="1280" y="180" as="targetPoint" />
            <Array as="points">
              <mxPoint x="1320" y="460" />
              <mxPoint x="1320" y="370" />
            </Array>
            <mxPoint as="offset" />
          </mxGeometry>
        </mxCell>
        <mxCell id="ZiZSVGNA6jYtWNyjr4ja-47" value="1" style="edgeLabel;resizable=0;html=1;align=left;verticalAlign=top;" parent="ZiZSVGNA6jYtWNyjr4ja-46" connectable="0" vertex="1">
          <mxGeometry x="-1" relative="1" as="geometry">
            <mxPoint x="5" y="-24" as="offset" />
          </mxGeometry>
        </mxCell>
        <mxCell id="ZiZSVGNA6jYtWNyjr4ja-48" value="1" style="edgeLabel;resizable=0;html=1;align=right;verticalAlign=top;" parent="ZiZSVGNA6jYtWNyjr4ja-46" connectable="0" vertex="1">
          <mxGeometry x="1" relative="1" as="geometry">
            <mxPoint x="-17" y="-24" as="offset" />
          </mxGeometry>
        </mxCell>
        <mxCell id="ZiZSVGNA6jYtWNyjr4ja-49" value="aggregates" style="endArrow=open;html=1;endSize=12;startArrow=none;startSize=14;startFill=0;edgeStyle=orthogonalEdgeStyle;rounded=0;" parent="1" source="ZiZSVGNA6jYtWNyjr4ja-11" target="ZiZSVGNA6jYtWNyjr4ja-19" edge="1">
          <mxGeometry x="0.6992" y="17" relative="1" as="geometry">
            <mxPoint x="890" y="461" as="sourcePoint" />
            <mxPoint x="690" y="490" as="targetPoint" />
            <Array as="points">
              <mxPoint x="520" y="397" />
            </Array>
            <mxPoint as="offset" />
          </mxGeometry>
        </mxCell>
        <mxCell id="ZiZSVGNA6jYtWNyjr4ja-50" value="1" style="edgeLabel;resizable=0;html=1;align=left;verticalAlign=top;" parent="ZiZSVGNA6jYtWNyjr4ja-49" connectable="0" vertex="1">
          <mxGeometry x="-1" relative="1" as="geometry">
            <mxPoint x="5" as="offset" />
          </mxGeometry>
        </mxCell>
        <mxCell id="ZiZSVGNA6jYtWNyjr4ja-51" value="1..n" style="edgeLabel;resizable=0;html=1;align=right;verticalAlign=top;" parent="ZiZSVGNA6jYtWNyjr4ja-49" connectable="0" vertex="1">
          <mxGeometry x="1" relative="1" as="geometry">
            <mxPoint x="-10" as="offset" />
          </mxGeometry>
        </mxCell>
        <mxCell id="ZiZSVGNA6jYtWNyjr4ja-53" value="Model Version" style="swimlane;fontStyle=1;align=center;verticalAlign=top;childLayout=stackLayout;horizontal=1;startSize=26;horizontalStack=0;resizeParent=1;resizeParentMax=0;resizeLast=0;collapsible=1;marginBottom=0;" parent="1" vertex="1">
          <mxGeometry x="200" y="120" width="160" height="104" as="geometry" />
        </mxCell>
        <mxCell id="ZiZSVGNA6jYtWNyjr4ja-54" value="+ name" style="text;strokeColor=none;fillColor=none;align=left;verticalAlign=top;spacingLeft=4;spacingRight=4;overflow=hidden;rotatable=0;points=[[0,0.5],[1,0.5]];portConstraint=eastwest;" parent="ZiZSVGNA6jYtWNyjr4ja-53" vertex="1">
          <mxGeometry y="26" width="160" height="26" as="geometry" />
        </mxCell>
        <mxCell id="ZiZSVGNA6jYtWNyjr4ja-55" value="+ version" style="text;strokeColor=none;fillColor=none;align=left;verticalAlign=top;spacingLeft=4;spacingRight=4;overflow=hidden;rotatable=0;points=[[0,0.5],[1,0.5]];portConstraint=eastwest;" parent="ZiZSVGNA6jYtWNyjr4ja-53" vertex="1">
          <mxGeometry y="52" width="160" height="26" as="geometry" />
        </mxCell>
        <mxCell id="ZiZSVGNA6jYtWNyjr4ja-56" value="+ features" style="text;strokeColor=none;fillColor=none;align=left;verticalAlign=top;spacingLeft=4;spacingRight=4;overflow=hidden;rotatable=0;points=[[0,0.5],[1,0.5]];portConstraint=eastwest;" parent="ZiZSVGNA6jYtWNyjr4ja-53" vertex="1">
          <mxGeometry y="78" width="160" height="26" as="geometry" />
        </mxCell>
        <mxCell id="ZiZSVGNA6jYtWNyjr4ja-57" value="uses" style="endArrow=open;html=1;endSize=12;startArrow=none;startSize=14;startFill=0;edgeStyle=orthogonalEdgeStyle;rounded=0;" parent="1" source="ZiZSVGNA6jYtWNyjr4ja-53" target="ZiZSVGNA6jYtWNyjr4ja-11" edge="1">
          <mxGeometry x="0.6" y="10" relative="1" as="geometry">
            <mxPoint x="530" y="208" as="sourcePoint" />
            <mxPoint x="730" y="407" as="targetPoint" />
            <Array as="points">
              <mxPoint x="390" y="210" />
              <mxPoint x="390" y="190" />
            </Array>
            <mxPoint as="offset" />
          </mxGeometry>
        </mxCell>
        <mxCell id="ZiZSVGNA6jYtWNyjr4ja-58" value="1" style="edgeLabel;resizable=0;html=1;align=left;verticalAlign=top;" parent="ZiZSVGNA6jYtWNyjr4ja-57" connectable="0" vertex="1">
          <mxGeometry x="-1" relative="1" as="geometry">
            <mxPoint x="5" as="offset" />
          </mxGeometry>
        </mxCell>
        <mxCell id="ZiZSVGNA6jYtWNyjr4ja-59" value="1" style="edgeLabel;resizable=0;html=1;align=right;verticalAlign=top;" parent="ZiZSVGNA6jYtWNyjr4ja-57" connectable="0" vertex="1">
          <mxGeometry x="1" relative="1" as="geometry">
            <mxPoint x="-10" as="offset" />
          </mxGeometry>
        </mxCell>
        <mxCell id="ZiZSVGNA6jYtWNyjr4ja-60" value="" style="endArrow=none;dashed=1;html=1;dashPattern=1 3;strokeWidth=2;rounded=0;" parent="1" edge="1">
          <mxGeometry width="50" height="50" relative="1" as="geometry">
            <mxPoint x="1280" y="660" as="sourcePoint" />
            <mxPoint x="1280" y="38" as="targetPoint" />
          </mxGeometry>
        </mxCell>
        <mxCell id="ZiZSVGNA6jYtWNyjr4ja-62" value="Data Source (Offline Store)" style="text;html=1;align=center;verticalAlign=middle;resizable=0;points=[];autosize=1;strokeColor=none;fillColor=none;fontSize=20;" parent="1" vertex="1">
          <mxGeometry x="1285" y="45" width="260" height="40" as="geometry" />
        </mxCell>
        <mxCell id="ZiZSVGNA6jYtWNyjr4ja-63" value="&lt;ul&gt;&lt;li style=&quot;text-align: left;&quot;&gt;&lt;font style=&quot;font-size: 12px;&quot;&gt;File (localS3)&lt;/font&gt;&lt;/li&gt;&lt;li style=&quot;text-align: left;&quot;&gt;&lt;span style=&quot;font-size: 12px;&quot;&gt;Snowflake&lt;/span&gt;&lt;/li&gt;&lt;li style=&quot;text-align: left;&quot;&gt;&lt;span style=&quot;font-size: 12px;&quot;&gt;Terradata&lt;/span&gt;&lt;/li&gt;&lt;li style=&quot;text-align: left;&quot;&gt;&lt;font style=&quot;font-size: 12px;&quot;&gt;RedShift&lt;/font&gt;&lt;/li&gt;&lt;li style=&quot;text-align: left;&quot;&gt;&lt;span style=&quot;font-size: 12px;&quot;&gt;Athena&lt;/span&gt;&lt;/li&gt;&lt;li style=&quot;text-align: left;&quot;&gt;&lt;span style=&quot;font-size: 12px;&quot;&gt;Spark&lt;/span&gt;&lt;/li&gt;&lt;/ul&gt;" style="text;html=1;align=center;verticalAlign=middle;resizable=0;points=[];autosize=1;strokeColor=none;fillColor=none;fontSize=20;" parent="1" vertex="1">
          <mxGeometry x="1280" y="60" width="130" height="200" as="geometry" />
        </mxCell>
        <mxCell id="ZiZSVGNA6jYtWNyjr4ja-64" value="Feature Retrieval" style="text;html=1;align=center;verticalAlign=middle;resizable=0;points=[];autosize=1;strokeColor=none;fillColor=none;fontSize=20;" parent="1" vertex="1">
          <mxGeometry x="750" y="45" width="180" height="40" as="geometry" />
        </mxCell>
        <mxCell id="ZiZSVGNA6jYtWNyjr4ja-65" value="" style="endArrow=none;dashed=1;html=1;dashPattern=1 3;strokeWidth=2;rounded=0;" parent="1" edge="1">
          <mxGeometry width="50" height="50" relative="1" as="geometry">
            <mxPoint x="400" y="640" as="sourcePoint" />
            <mxPoint x="400" y="35" as="targetPoint" />
          </mxGeometry>
        </mxCell>
        <mxCell id="ZiZSVGNA6jYtWNyjr4ja-66" value="FeatureView is the mechanism to query columns from the physical table." style="text;html=1;align=left;verticalAlign=middle;resizable=0;points=[];autosize=1;strokeColor=none;fillColor=none;fontSize=15;" parent="1" vertex="1">
          <mxGeometry x="760" y="198" width="510" height="30" as="geometry" />
        </mxCell>
        <mxCell id="ZiZSVGNA6jYtWNyjr4ja-68" value="" style="shape=flexArrow;endArrow=classic;html=1;rounded=0;fontSize=15;fillColor=#d5e8d4;strokeColor=#82b366;" parent="1" edge="1">
          <mxGeometry width="50" height="50" relative="1" as="geometry">
            <mxPoint x="1280" y="240" as="sourcePoint" />
            <mxPoint x="720" y="240" as="targetPoint" />
          </mxGeometry>
        </mxCell>
        <mxCell id="ZiZSVGNA6jYtWNyjr4ja-69" value="Table class models the schema, not its record.&lt;br&gt;&lt;br&gt;There are multiple columns in a table but a Field only refers to one column." style="shape=note;strokeWidth=2;fontSize=14;size=20;whiteSpace=wrap;html=1;fillColor=#fff2cc;strokeColor=#d6b656;fontColor=#666600;align=left;spacingLeft=5;" parent="1" vertex="1">
          <mxGeometry x="1350" y="440" width="250" height="110" as="geometry" />
        </mxCell>
        <mxCell id="ZiZSVGNA6jYtWNyjr4ja-73" value="identifies" style="endArrow=open;html=1;endSize=12;startArrow=none;startSize=14;startFill=0;edgeStyle=orthogonalEdgeStyle;rounded=0;" parent="1" source="ZiZSVGNA6jYtWNyjr4ja-72" target="ZiZSVGNA6jYtWNyjr4ja-52" edge="1">
          <mxGeometry x="-0.1667" relative="1" as="geometry">
            <mxPoint x="1250" y="329" as="sourcePoint" />
            <mxPoint x="1370" y="329" as="targetPoint" />
            <Array as="points" />
            <mxPoint as="offset" />
          </mxGeometry>
        </mxCell>
        <mxCell id="ZiZSVGNA6jYtWNyjr4ja-74" value="1" style="edgeLabel;resizable=0;html=1;align=left;verticalAlign=top;" parent="ZiZSVGNA6jYtWNyjr4ja-73" connectable="0" vertex="1">
          <mxGeometry x="-1" relative="1" as="geometry">
            <mxPoint x="5" y="-23" as="offset" />
          </mxGeometry>
        </mxCell>
        <mxCell id="ZiZSVGNA6jYtWNyjr4ja-75" value="1" style="edgeLabel;resizable=0;html=1;align=right;verticalAlign=top;" parent="ZiZSVGNA6jYtWNyjr4ja-73" connectable="0" vertex="1">
          <mxGeometry x="1" relative="1" as="geometry">
            <mxPoint x="-17" y="-24" as="offset" />
          </mxGeometry>
        </mxCell>
        <mxCell id="ZiZSVGNA6jYtWNyjr4ja-76" value="Currently only one join_key is supported." style="shape=note;strokeWidth=2;fontSize=14;size=20;whiteSpace=wrap;html=1;fillColor=#f8cecc;strokeColor=#b85450;align=left;spacingLeft=5;" parent="1" vertex="1">
          <mxGeometry x="1120" y="620" width="280" height="30" as="geometry" />
        </mxCell>
        <mxCell id="ZiZSVGNA6jYtWNyjr4ja-77" value="" style="endArrow=classic;html=1;rounded=0;fontSize=12;fillColor=default;exitX=0.352;exitY=0;exitDx=0;exitDy=0;exitPerimeter=0;strokeColor=#FF3399;" parent="1" source="ZiZSVGNA6jYtWNyjr4ja-76" edge="1">
          <mxGeometry width="50" height="50" relative="1" as="geometry">
            <mxPoint x="980" y="330" as="sourcePoint" />
            <mxPoint x="1075" y="461" as="targetPoint" />
          </mxGeometry>
        </mxCell>
        <mxCell id="ZiZSVGNA6jYtWNyjr4ja-78" value="FeatureView does not store offline data.&lt;br&gt;It just points to columns." style="shape=note;strokeWidth=2;fontSize=14;size=20;whiteSpace=wrap;html=1;fillColor=#fff2cc;strokeColor=#d6b656;fontColor=#666600;align=left;spacingLeft=2;" parent="1" vertex="1">
          <mxGeometry x="710" y="580" width="280" height="50" as="geometry" />
        </mxCell>
        <mxCell id="ZiZSVGNA6jYtWNyjr4ja-79" value="Each model version uses its own FeatureService." style="shape=note;strokeWidth=2;fontSize=14;size=20;whiteSpace=wrap;html=1;fillColor=#fff2cc;strokeColor=#d6b656;fontColor=#666600;align=left;spacingLeft=2;" parent="1" vertex="1">
          <mxGeometry x="260" y="250" width="231" height="50" as="geometry" />
        </mxCell>
        <mxCell id="3u7ietOIASCGM3nwf3Ga-1" value="Feature Consumption" style="text;html=1;align=center;verticalAlign=middle;resizable=0;points=[];autosize=1;strokeColor=none;fillColor=none;fontSize=20;" parent="1" vertex="1">
          <mxGeometry x="150" y="45" width="220" height="40" as="geometry" />
        </mxCell>
      </root>
    </mxGraphModel>
  </diagram>
  <diagram id="d3D_b79fd-GcuIn-CzYr" name="Registration">
    <mxGraphModel dx="3153" dy="1833" grid="1" gridSize="10" guides="1" tooltips="1" connect="1" arrows="1" fold="1" page="1" pageScale="1" pageWidth="4681" pageHeight="3300" math="0" shadow="0">
      <root>
        <mxCell id="0" />
        <mxCell id="Sc0OpXr11sxaCW_sMkfP-65" value="Infrastructure" style="" parent="0" />
        <mxCell id="5PZxO7IhgwgcGIbltrGD-58" value="" style="rounded=0;whiteSpace=wrap;html=1;fillColor=#E3CDB6;strokeColor=#d79b00;" vertex="1" parent="Sc0OpXr11sxaCW_sMkfP-65">
          <mxGeometry x="2150" y="450" width="220" height="910" as="geometry" />
        </mxCell>
        <mxCell id="5PZxO7IhgwgcGIbltrGD-59" value="" style="rounded=0;whiteSpace=wrap;html=1;fillColor=#d5e8d4;strokeColor=#82b366;" vertex="1" parent="Sc0OpXr11sxaCW_sMkfP-65">
          <mxGeometry x="840" y="450" width="1280" height="910" as="geometry" />
        </mxCell>
        <mxCell id="5PZxO7IhgwgcGIbltrGD-60" value="" style="rounded=0;whiteSpace=wrap;html=1;fillColor=#dae8fc;strokeColor=#6c8ebf;" vertex="1" parent="Sc0OpXr11sxaCW_sMkfP-65">
          <mxGeometry x="260" y="450" width="550" height="910" as="geometry" />
        </mxCell>
        <mxCell id="1" value="Componnent" style="" parent="0" />
        <mxCell id="5PZxO7IhgwgcGIbltrGD-11" value="" style="shape=cylinder3;whiteSpace=wrap;html=1;boundedLbl=1;backgroundOutline=1;size=9;fillColor=none;" vertex="1" parent="1">
          <mxGeometry x="2160" y="580" width="200" height="220" as="geometry" />
        </mxCell>
        <mxCell id="5PZxO7IhgwgcGIbltrGD-10" value="" style="shape=cylinder3;whiteSpace=wrap;html=1;boundedLbl=1;backgroundOutline=1;size=9;fillColor=none;" vertex="1" parent="1">
          <mxGeometry x="1730" y="580" width="230" height="220" as="geometry" />
        </mxCell>
        <mxCell id="5PZxO7IhgwgcGIbltrGD-17" value="reads" style="edgeStyle=orthogonalEdgeStyle;rounded=0;orthogonalLoop=1;jettySize=auto;html=1;entryX=0.5;entryY=0;entryDx=0;entryDy=0;fontSize=14;" edge="1" parent="1" source="5PZxO7IhgwgcGIbltrGD-12" target="Sc0OpXr11sxaCW_sMkfP-92">
          <mxGeometry relative="1" as="geometry" />
        </mxCell>
        <mxCell id="5PZxO7IhgwgcGIbltrGD-12" value="" style="rounded=0;whiteSpace=wrap;html=1;fillColor=none;" vertex="1" parent="1">
          <mxGeometry x="850" y="580" width="790" height="390" as="geometry" />
        </mxCell>
        <mxCell id="Sc0OpXr11sxaCW_sMkfP-1" value="FeatureView" style="swimlane;fontStyle=1;align=center;verticalAlign=top;childLayout=stackLayout;horizontal=1;startSize=26;horizontalStack=0;resizeParent=1;resizeParentMax=0;resizeLast=0;collapsible=1;marginBottom=0;fontSize=14;" vertex="1" parent="1">
          <mxGeometry x="1120" y="620" width="160" height="242" as="geometry" />
        </mxCell>
        <mxCell id="Sc0OpXr11sxaCW_sMkfP-2" value="+ name" style="text;strokeColor=none;fillColor=none;align=left;verticalAlign=top;spacingLeft=4;spacingRight=4;overflow=hidden;rotatable=0;points=[[0,0.5],[1,0.5]];portConstraint=eastwest;" vertex="1" parent="Sc0OpXr11sxaCW_sMkfP-1">
          <mxGeometry y="26" width="160" height="26" as="geometry" />
        </mxCell>
        <mxCell id="Sc0OpXr11sxaCW_sMkfP-3" value="+ source" style="text;strokeColor=none;fillColor=none;align=left;verticalAlign=top;spacingLeft=4;spacingRight=4;overflow=hidden;rotatable=0;points=[[0,0.5],[1,0.5]];portConstraint=eastwest;" vertex="1" parent="Sc0OpXr11sxaCW_sMkfP-1">
          <mxGeometry y="52" width="160" height="26" as="geometry" />
        </mxCell>
        <mxCell id="Sc0OpXr11sxaCW_sMkfP-4" value="+ entities" style="text;strokeColor=none;fillColor=none;align=left;verticalAlign=top;spacingLeft=4;spacingRight=4;overflow=hidden;rotatable=0;points=[[0,0.5],[1,0.5]];portConstraint=eastwest;" vertex="1" parent="Sc0OpXr11sxaCW_sMkfP-1">
          <mxGeometry y="78" width="160" height="26" as="geometry" />
        </mxCell>
        <mxCell id="Sc0OpXr11sxaCW_sMkfP-5" value="+ schema/fields" style="text;strokeColor=none;fillColor=none;align=left;verticalAlign=top;spacingLeft=4;spacingRight=4;overflow=hidden;rotatable=0;points=[[0,0.5],[1,0.5]];portConstraint=eastwest;" vertex="1" parent="Sc0OpXr11sxaCW_sMkfP-1">
          <mxGeometry y="104" width="160" height="26" as="geometry" />
        </mxCell>
        <mxCell id="Sc0OpXr11sxaCW_sMkfP-6" value="+ ttl" style="text;strokeColor=none;fillColor=none;align=left;verticalAlign=top;spacingLeft=4;spacingRight=4;overflow=hidden;rotatable=0;points=[[0,0.5],[1,0.5]];portConstraint=eastwest;fontSize=12;" vertex="1" parent="Sc0OpXr11sxaCW_sMkfP-1">
          <mxGeometry y="130" width="160" height="26" as="geometry" />
        </mxCell>
        <mxCell id="Sc0OpXr11sxaCW_sMkfP-7" value="+ online" style="text;strokeColor=none;fillColor=none;align=left;verticalAlign=top;spacingLeft=4;spacingRight=4;overflow=hidden;rotatable=0;points=[[0,0.5],[1,0.5]];portConstraint=eastwest;fontSize=12;" vertex="1" parent="Sc0OpXr11sxaCW_sMkfP-1">
          <mxGeometry y="156" width="160" height="26" as="geometry" />
        </mxCell>
        <mxCell id="Sc0OpXr11sxaCW_sMkfP-8" value="" style="line;strokeWidth=1;fillColor=none;align=left;verticalAlign=middle;spacingTop=-1;spacingLeft=3;spacingRight=3;rotatable=0;labelPosition=right;points=[];portConstraint=eastwest;strokeColor=inherit;" vertex="1" parent="Sc0OpXr11sxaCW_sMkfP-1">
          <mxGeometry y="182" width="160" height="8" as="geometry" />
        </mxCell>
        <mxCell id="Sc0OpXr11sxaCW_sMkfP-9" value="+ get_online_features" style="text;strokeColor=none;fillColor=none;align=left;verticalAlign=top;spacingLeft=4;spacingRight=4;overflow=hidden;rotatable=0;points=[[0,0.5],[1,0.5]];portConstraint=eastwest;" vertex="1" parent="Sc0OpXr11sxaCW_sMkfP-1">
          <mxGeometry y="190" width="160" height="26" as="geometry" />
        </mxCell>
        <mxCell id="Sc0OpXr11sxaCW_sMkfP-10" value="+ get_offline_features" style="text;strokeColor=none;fillColor=none;align=left;verticalAlign=top;spacingLeft=4;spacingRight=4;overflow=hidden;rotatable=0;points=[[0,0.5],[1,0.5]];portConstraint=eastwest;" vertex="1" parent="Sc0OpXr11sxaCW_sMkfP-1">
          <mxGeometry y="216" width="160" height="26" as="geometry" />
        </mxCell>
        <mxCell id="Sc0OpXr11sxaCW_sMkfP-11" value="Entity" style="swimlane;fontStyle=1;align=center;verticalAlign=top;childLayout=stackLayout;horizontal=1;startSize=26;horizontalStack=0;resizeParent=1;resizeParentMax=0;resizeLast=0;collapsible=1;marginBottom=0;fontSize=14;" vertex="1" parent="1">
          <mxGeometry x="1400" y="784" width="160" height="78" as="geometry" />
        </mxCell>
        <mxCell id="Sc0OpXr11sxaCW_sMkfP-12" value="+ entity_join_key" style="text;strokeColor=none;fillColor=none;align=left;verticalAlign=top;spacingLeft=4;spacingRight=4;overflow=hidden;rotatable=0;points=[[0,0.5],[1,0.5]];portConstraint=eastwest;fontStyle=1" vertex="1" parent="Sc0OpXr11sxaCW_sMkfP-11">
          <mxGeometry y="26" width="160" height="26" as="geometry" />
        </mxCell>
        <mxCell id="Sc0OpXr11sxaCW_sMkfP-13" value="+ name" style="text;strokeColor=none;fillColor=none;align=left;verticalAlign=top;spacingLeft=4;spacingRight=4;overflow=hidden;rotatable=0;points=[[0,0.5],[1,0.5]];portConstraint=eastwest;" vertex="1" parent="Sc0OpXr11sxaCW_sMkfP-11">
          <mxGeometry y="52" width="160" height="26" as="geometry" />
        </mxCell>
        <mxCell id="Sc0OpXr11sxaCW_sMkfP-14" value="DataSource" style="swimlane;fontStyle=1;align=center;verticalAlign=top;childLayout=stackLayout;horizontal=1;startSize=26;horizontalStack=0;resizeParent=1;resizeParentMax=0;resizeLast=0;collapsible=1;marginBottom=0;fontSize=14;" vertex="1" parent="1">
          <mxGeometry x="1400" y="620" width="220" height="138" as="geometry" />
        </mxCell>
        <mxCell id="Sc0OpXr11sxaCW_sMkfP-15" value="+ table" style="text;strokeColor=none;fillColor=none;align=left;verticalAlign=top;spacingLeft=4;spacingRight=4;overflow=hidden;rotatable=0;points=[[0,0.5],[1,0.5]];portConstraint=eastwest;" vertex="1" parent="Sc0OpXr11sxaCW_sMkfP-14">
          <mxGeometry y="26" width="220" height="26" as="geometry" />
        </mxCell>
        <mxCell id="Sc0OpXr11sxaCW_sMkfP-87" value="+ created_timestamp_column" style="text;strokeColor=none;fillColor=none;align=left;verticalAlign=top;spacingLeft=4;spacingRight=4;overflow=hidden;rotatable=0;points=[[0,0.5],[1,0.5]];portConstraint=eastwest;whiteSpace=wrap;html=1;fontStyle=1" vertex="1" parent="Sc0OpXr11sxaCW_sMkfP-14">
          <mxGeometry y="52" width="220" height="26" as="geometry" />
        </mxCell>
        <mxCell id="Sc0OpXr11sxaCW_sMkfP-16" value="+ timestamp_field" style="text;strokeColor=none;fillColor=none;align=left;verticalAlign=top;spacingLeft=4;spacingRight=4;overflow=hidden;rotatable=0;points=[[0,0.5],[1,0.5]];portConstraint=eastwest;fontSize=12;fontStyle=1" vertex="1" parent="Sc0OpXr11sxaCW_sMkfP-14">
          <mxGeometry y="78" width="220" height="26" as="geometry" />
        </mxCell>
        <mxCell id="Sc0OpXr11sxaCW_sMkfP-17" value="" style="line;strokeWidth=1;fillColor=none;align=left;verticalAlign=middle;spacingTop=-1;spacingLeft=3;spacingRight=3;rotatable=0;labelPosition=right;points=[];portConstraint=eastwest;strokeColor=inherit;" vertex="1" parent="Sc0OpXr11sxaCW_sMkfP-14">
          <mxGeometry y="104" width="220" height="8" as="geometry" />
        </mxCell>
        <mxCell id="Sc0OpXr11sxaCW_sMkfP-18" value="+ get_table_column_names_and_types" style="text;strokeColor=none;fillColor=none;align=left;verticalAlign=top;spacingLeft=4;spacingRight=4;overflow=hidden;rotatable=0;points=[[0,0.5],[1,0.5]];portConstraint=eastwest;" vertex="1" parent="Sc0OpXr11sxaCW_sMkfP-14">
          <mxGeometry y="112" width="220" height="26" as="geometry" />
        </mxCell>
        <mxCell id="Sc0OpXr11sxaCW_sMkfP-24" value="uses" style="endArrow=open;html=1;endSize=12;startArrow=diamondThin;startSize=14;startFill=0;edgeStyle=orthogonalEdgeStyle;rounded=0;fontSize=14;" edge="1" parent="1" source="Sc0OpXr11sxaCW_sMkfP-3" target="Sc0OpXr11sxaCW_sMkfP-14">
          <mxGeometry x="0.1724" y="10" relative="1" as="geometry">
            <mxPoint x="1360" y="920" as="sourcePoint" />
            <mxPoint x="1520" y="920" as="targetPoint" />
            <Array as="points">
              <mxPoint x="1320" y="685" />
              <mxPoint x="1320" y="660" />
            </Array>
            <mxPoint as="offset" />
          </mxGeometry>
        </mxCell>
        <mxCell id="Sc0OpXr11sxaCW_sMkfP-25" value="1" style="edgeLabel;resizable=0;html=1;align=left;verticalAlign=top;" connectable="0" vertex="1" parent="Sc0OpXr11sxaCW_sMkfP-24">
          <mxGeometry x="-1" relative="1" as="geometry">
            <mxPoint x="5" as="offset" />
          </mxGeometry>
        </mxCell>
        <mxCell id="Sc0OpXr11sxaCW_sMkfP-26" value="1" style="edgeLabel;resizable=0;html=1;align=right;verticalAlign=top;" connectable="0" vertex="1" parent="Sc0OpXr11sxaCW_sMkfP-24">
          <mxGeometry x="1" relative="1" as="geometry">
            <mxPoint x="-10" as="offset" />
          </mxGeometry>
        </mxCell>
        <mxCell id="Sc0OpXr11sxaCW_sMkfP-27" value="Field" style="swimlane;fontStyle=1;align=center;verticalAlign=top;childLayout=stackLayout;horizontal=1;startSize=26;horizontalStack=0;resizeParent=1;resizeParentMax=0;resizeLast=0;collapsible=1;marginBottom=0;fontSize=14;" vertex="1" parent="1">
          <mxGeometry x="1400" y="880" width="160" height="78" as="geometry" />
        </mxCell>
        <mxCell id="Sc0OpXr11sxaCW_sMkfP-28" value="+ name" style="text;strokeColor=none;fillColor=none;align=left;verticalAlign=top;spacingLeft=4;spacingRight=4;overflow=hidden;rotatable=0;points=[[0,0.5],[1,0.5]];portConstraint=eastwest;" vertex="1" parent="Sc0OpXr11sxaCW_sMkfP-27">
          <mxGeometry y="26" width="160" height="26" as="geometry" />
        </mxCell>
        <mxCell id="Sc0OpXr11sxaCW_sMkfP-29" value="+ dtype" style="text;strokeColor=none;fillColor=none;align=left;verticalAlign=top;spacingLeft=4;spacingRight=4;overflow=hidden;rotatable=0;points=[[0,0.5],[1,0.5]];portConstraint=eastwest;" vertex="1" parent="Sc0OpXr11sxaCW_sMkfP-27">
          <mxGeometry y="52" width="160" height="26" as="geometry" />
        </mxCell>
        <mxCell id="Sc0OpXr11sxaCW_sMkfP-30" value="has" style="endArrow=open;html=1;endSize=12;startArrow=diamondThin;startSize=14;startFill=0;edgeStyle=orthogonalEdgeStyle;rounded=0;fontSize=14;" edge="1" parent="1" source="Sc0OpXr11sxaCW_sMkfP-4" target="Sc0OpXr11sxaCW_sMkfP-12">
          <mxGeometry x="-0.4828" y="11" relative="1" as="geometry">
            <mxPoint x="1290" y="775" as="sourcePoint" />
            <mxPoint x="1410" y="670" as="targetPoint" />
            <Array as="points">
              <mxPoint x="1360" y="711" />
              <mxPoint x="1360" y="823" />
            </Array>
            <mxPoint as="offset" />
          </mxGeometry>
        </mxCell>
        <mxCell id="Sc0OpXr11sxaCW_sMkfP-31" value="1" style="edgeLabel;resizable=0;html=1;align=left;verticalAlign=top;" connectable="0" vertex="1" parent="Sc0OpXr11sxaCW_sMkfP-30">
          <mxGeometry x="-1" relative="1" as="geometry">
            <mxPoint x="5" as="offset" />
          </mxGeometry>
        </mxCell>
        <mxCell id="Sc0OpXr11sxaCW_sMkfP-32" value="0..n" style="edgeLabel;resizable=0;html=1;align=right;verticalAlign=top;" connectable="0" vertex="1" parent="Sc0OpXr11sxaCW_sMkfP-30">
          <mxGeometry x="1" relative="1" as="geometry">
            <mxPoint x="-10" as="offset" />
          </mxGeometry>
        </mxCell>
        <mxCell id="Sc0OpXr11sxaCW_sMkfP-33" value="has" style="endArrow=open;html=1;endSize=12;startArrow=diamondThin;startSize=14;startFill=0;edgeStyle=orthogonalEdgeStyle;rounded=0;fontSize=14;" edge="1" parent="1" source="Sc0OpXr11sxaCW_sMkfP-5" target="Sc0OpXr11sxaCW_sMkfP-27">
          <mxGeometry x="0.576" y="10" relative="1" as="geometry">
            <mxPoint x="1290" y="809.9960000000001" as="sourcePoint" />
            <mxPoint x="1410" y="809.9960000000001" as="targetPoint" />
            <Array as="points">
              <mxPoint x="1320" y="737" />
              <mxPoint x="1320" y="900" />
            </Array>
            <mxPoint as="offset" />
          </mxGeometry>
        </mxCell>
        <mxCell id="Sc0OpXr11sxaCW_sMkfP-34" value="1" style="edgeLabel;resizable=0;html=1;align=left;verticalAlign=top;" connectable="0" vertex="1" parent="Sc0OpXr11sxaCW_sMkfP-33">
          <mxGeometry x="-1" relative="1" as="geometry">
            <mxPoint x="5" as="offset" />
          </mxGeometry>
        </mxCell>
        <mxCell id="Sc0OpXr11sxaCW_sMkfP-35" value="1" style="edgeLabel;resizable=0;html=1;align=right;verticalAlign=top;" connectable="0" vertex="1" parent="Sc0OpXr11sxaCW_sMkfP-33">
          <mxGeometry x="1" relative="1" as="geometry">
            <mxPoint x="-10" as="offset" />
          </mxGeometry>
        </mxCell>
        <mxCell id="Sc0OpXr11sxaCW_sMkfP-36" value="identifies" style="endArrow=open;html=1;endSize=12;startArrow=none;startSize=14;startFill=0;edgeStyle=orthogonalEdgeStyle;rounded=0;fontSize=14;" edge="1" parent="1" source="Sc0OpXr11sxaCW_sMkfP-15">
          <mxGeometry x="-0.1667" y="-1" relative="1" as="geometry">
            <mxPoint x="1290" y="775" as="sourcePoint" />
            <mxPoint x="1760" y="659" as="targetPoint" />
            <Array as="points" />
            <mxPoint as="offset" />
          </mxGeometry>
        </mxCell>
        <mxCell id="Sc0OpXr11sxaCW_sMkfP-37" value="1" style="edgeLabel;resizable=0;html=1;align=left;verticalAlign=top;" connectable="0" vertex="1" parent="Sc0OpXr11sxaCW_sMkfP-36">
          <mxGeometry x="-1" relative="1" as="geometry">
            <mxPoint x="5" y="-28" as="offset" />
          </mxGeometry>
        </mxCell>
        <mxCell id="Sc0OpXr11sxaCW_sMkfP-39" value="identifies" style="endArrow=open;html=1;endSize=12;startArrow=none;startSize=14;startFill=0;edgeStyle=orthogonalEdgeStyle;rounded=0;entryX=0;entryY=0.5;entryDx=0;entryDy=0;fontSize=14;" edge="1" parent="1" source="Sc0OpXr11sxaCW_sMkfP-28" target="Sc0OpXr11sxaCW_sMkfP-58">
          <mxGeometry x="-0.3388" relative="1" as="geometry">
            <mxPoint x="1650" y="680" as="sourcePoint" />
            <mxPoint x="1760" y="737" as="targetPoint" />
            <Array as="points">
              <mxPoint x="1740" y="920" />
              <mxPoint x="1740" y="763" />
            </Array>
            <mxPoint as="offset" />
          </mxGeometry>
        </mxCell>
        <mxCell id="Sc0OpXr11sxaCW_sMkfP-40" value="1" style="edgeLabel;resizable=0;html=1;align=left;verticalAlign=top;" connectable="0" vertex="1" parent="Sc0OpXr11sxaCW_sMkfP-39">
          <mxGeometry x="-1" relative="1" as="geometry">
            <mxPoint x="5" y="-25" as="offset" />
          </mxGeometry>
        </mxCell>
        <mxCell id="Sc0OpXr11sxaCW_sMkfP-42" value="identifies" style="endArrow=open;html=1;endSize=12;startArrow=none;startSize=14;startFill=0;edgeStyle=orthogonalEdgeStyle;rounded=0;entryX=0.003;entryY=0.649;entryDx=0;entryDy=0;entryPerimeter=0;fontSize=14;" edge="1" parent="1" source="Sc0OpXr11sxaCW_sMkfP-12" target="Sc0OpXr11sxaCW_sMkfP-57">
          <mxGeometry x="-0.1724" relative="1" as="geometry">
            <mxPoint x="1570" y="950" as="sourcePoint" />
            <mxPoint x="1760" y="710" as="targetPoint" />
            <Array as="points">
              <mxPoint x="1720" y="823" />
              <mxPoint x="1720" y="740" />
              <mxPoint x="1761" y="740" />
            </Array>
            <mxPoint as="offset" />
          </mxGeometry>
        </mxCell>
        <mxCell id="Sc0OpXr11sxaCW_sMkfP-43" value="1" style="edgeLabel;resizable=0;html=1;align=left;verticalAlign=top;" connectable="0" vertex="1" parent="Sc0OpXr11sxaCW_sMkfP-42">
          <mxGeometry x="-1" relative="1" as="geometry">
            <mxPoint x="5" y="-24" as="offset" />
          </mxGeometry>
        </mxCell>
        <mxCell id="Sc0OpXr11sxaCW_sMkfP-45" value="1..n" style="edgeLabel;resizable=0;html=1;align=right;verticalAlign=top;" connectable="0" vertex="1" parent="1">
          <mxGeometry x="1110" y="737" as="geometry" />
        </mxCell>
        <mxCell id="Sc0OpXr11sxaCW_sMkfP-48" value="identifies" style="endArrow=open;html=1;endSize=12;startArrow=none;startSize=14;startFill=0;edgeStyle=orthogonalEdgeStyle;rounded=0;entryX=0;entryY=0.5;entryDx=0;entryDy=0;fontSize=14;" edge="1" parent="1" source="Sc0OpXr11sxaCW_sMkfP-16" target="Sc0OpXr11sxaCW_sMkfP-56">
          <mxGeometry x="-0.1667" relative="1" as="geometry">
            <mxPoint x="1650" y="669" as="sourcePoint" />
            <mxPoint x="1760" y="685" as="targetPoint" />
            <Array as="points" />
            <mxPoint as="offset" />
          </mxGeometry>
        </mxCell>
        <mxCell id="Sc0OpXr11sxaCW_sMkfP-49" value="1" style="edgeLabel;resizable=0;html=1;align=left;verticalAlign=top;" connectable="0" vertex="1" parent="Sc0OpXr11sxaCW_sMkfP-48">
          <mxGeometry x="-1" relative="1" as="geometry">
            <mxPoint x="5" y="-23" as="offset" />
          </mxGeometry>
        </mxCell>
        <mxCell id="Sc0OpXr11sxaCW_sMkfP-54" value="Feature Table" style="swimlane;fontStyle=1;align=center;verticalAlign=top;childLayout=stackLayout;horizontal=1;startSize=26;horizontalStack=0;resizeParent=1;resizeParentMax=0;resizeLast=0;collapsible=1;marginBottom=0;fontSize=17;labelBackgroundColor=default;" vertex="1" parent="1">
          <mxGeometry x="1760" y="620" width="170" height="156" as="geometry" />
        </mxCell>
        <mxCell id="Sc0OpXr11sxaCW_sMkfP-55" value="+ name" style="text;strokeColor=none;fillColor=none;align=left;verticalAlign=top;spacingLeft=4;spacingRight=4;overflow=hidden;rotatable=0;points=[[0,0.5],[1,0.5]];portConstraint=eastwest;" vertex="1" parent="Sc0OpXr11sxaCW_sMkfP-54">
          <mxGeometry y="26" width="170" height="26" as="geometry" />
        </mxCell>
        <mxCell id="Sc0OpXr11sxaCW_sMkfP-86" value="+ &lt;b&gt;created column&lt;/b&gt;" style="text;strokeColor=none;fillColor=none;align=left;verticalAlign=top;spacingLeft=4;spacingRight=4;overflow=hidden;rotatable=0;points=[[0,0.5],[1,0.5]];portConstraint=eastwest;whiteSpace=wrap;html=1;fontColor=#FF0000;" vertex="1" parent="Sc0OpXr11sxaCW_sMkfP-54">
          <mxGeometry y="52" width="170" height="26" as="geometry" />
        </mxCell>
        <mxCell id="Sc0OpXr11sxaCW_sMkfP-56" value="+ event_timestamp column" style="text;strokeColor=none;fillColor=none;align=left;verticalAlign=top;spacingLeft=4;spacingRight=4;overflow=hidden;rotatable=0;points=[[0,0.5],[1,0.5]];portConstraint=eastwest;fontStyle=1;fontColor=#FF0000;" vertex="1" parent="Sc0OpXr11sxaCW_sMkfP-54">
          <mxGeometry y="78" width="170" height="26" as="geometry" />
        </mxCell>
        <mxCell id="Sc0OpXr11sxaCW_sMkfP-57" value="+ entity_join_key column" style="text;strokeColor=none;fillColor=none;align=left;verticalAlign=top;spacingLeft=4;spacingRight=4;overflow=hidden;rotatable=0;points=[[0,0.5],[1,0.5]];portConstraint=eastwest;fontStyle=1;fontColor=#FF0000;" vertex="1" parent="Sc0OpXr11sxaCW_sMkfP-54">
          <mxGeometry y="104" width="170" height="26" as="geometry" />
        </mxCell>
        <mxCell id="Sc0OpXr11sxaCW_sMkfP-58" value="+ feature column*" style="text;strokeColor=none;fillColor=none;align=left;verticalAlign=top;spacingLeft=4;spacingRight=4;overflow=hidden;rotatable=0;points=[[0,0.5],[1,0.5]];portConstraint=eastwest;" vertex="1" parent="Sc0OpXr11sxaCW_sMkfP-54">
          <mxGeometry y="130" width="170" height="26" as="geometry" />
        </mxCell>
        <mxCell id="Sc0OpXr11sxaCW_sMkfP-59" value="1" style="edgeLabel;resizable=0;html=1;align=right;verticalAlign=top;" connectable="0" vertex="1" parent="1">
          <mxGeometry x="1743" y="630" as="geometry" />
        </mxCell>
        <mxCell id="Sc0OpXr11sxaCW_sMkfP-60" value="1" style="edgeLabel;resizable=0;html=1;align=right;verticalAlign=top;" connectable="0" vertex="1" parent="1">
          <mxGeometry x="1743" y="712" as="geometry" />
        </mxCell>
        <mxCell id="Sc0OpXr11sxaCW_sMkfP-61" value="1" style="edgeLabel;resizable=0;html=1;align=right;verticalAlign=top;" connectable="0" vertex="1" parent="1">
          <mxGeometry x="1743" y="686" as="geometry" />
        </mxCell>
        <mxCell id="Sc0OpXr11sxaCW_sMkfP-62" value="1" style="edgeLabel;resizable=0;html=1;align=right;verticalAlign=top;" connectable="0" vertex="1" parent="1">
          <mxGeometry x="1743" y="661" as="geometry" />
        </mxCell>
        <mxCell id="Sc0OpXr11sxaCW_sMkfP-69" value="Feature Engineering" style="shape=process;whiteSpace=wrap;html=1;backgroundOutline=1;fontSize=14;" vertex="1" parent="1">
          <mxGeometry x="1990" y="660" width="120" height="60" as="geometry" />
        </mxCell>
        <mxCell id="Sc0OpXr11sxaCW_sMkfP-70" value="Raw Column Table" style="swimlane;fontStyle=1;align=center;verticalAlign=top;childLayout=stackLayout;horizontal=1;startSize=26;horizontalStack=0;resizeParent=1;resizeParentMax=0;resizeLast=0;collapsible=1;marginBottom=0;fontSize=14;" vertex="1" parent="1">
          <mxGeometry x="2180" y="620" width="160" height="78" as="geometry" />
        </mxCell>
        <mxCell id="Sc0OpXr11sxaCW_sMkfP-71" value="+ name" style="text;strokeColor=none;fillColor=none;align=left;verticalAlign=top;spacingLeft=4;spacingRight=4;overflow=hidden;rotatable=0;points=[[0,0.5],[1,0.5]];portConstraint=eastwest;" vertex="1" parent="Sc0OpXr11sxaCW_sMkfP-70">
          <mxGeometry y="26" width="160" height="26" as="geometry" />
        </mxCell>
        <mxCell id="Sc0OpXr11sxaCW_sMkfP-73" value="+ columns" style="text;strokeColor=none;fillColor=none;align=left;verticalAlign=top;spacingLeft=4;spacingRight=4;overflow=hidden;rotatable=0;points=[[0,0.5],[1,0.5]];portConstraint=eastwest;" vertex="1" parent="Sc0OpXr11sxaCW_sMkfP-70">
          <mxGeometry y="52" width="160" height="26" as="geometry" />
        </mxCell>
        <mxCell id="Sc0OpXr11sxaCW_sMkfP-80" value="Offline Store (FEAST Data Source)" style="text;html=1;align=center;verticalAlign=middle;resizable=0;points=[];autosize=1;strokeColor=none;fillColor=none;fontStyle=0;fontSize=14;" vertex="1" parent="1">
          <mxGeometry x="1720" y="550" width="240" height="30" as="geometry" />
        </mxCell>
        <mxCell id="Sc0OpXr11sxaCW_sMkfP-81" value="Raw Data (Not Features)" style="text;html=1;align=center;verticalAlign=middle;resizable=0;points=[];autosize=1;strokeColor=none;fillColor=none;fontStyle=0;fontSize=14;" vertex="1" parent="1">
          <mxGeometry x="2170" y="550" width="180" height="30" as="geometry" />
        </mxCell>
        <mxCell id="Sc0OpXr11sxaCW_sMkfP-82" value="Feature Definition (features.py)" style="text;html=1;align=center;verticalAlign=middle;resizable=0;points=[];autosize=1;strokeColor=none;fillColor=none;fontStyle=0;fontSize=14;" vertex="1" parent="1">
          <mxGeometry x="1135" y="550" width="220" height="30" as="geometry" />
        </mxCell>
        <mxCell id="Sc0OpXr11sxaCW_sMkfP-88" value="identifies" style="endArrow=open;html=1;endSize=12;startArrow=none;startSize=14;startFill=0;edgeStyle=orthogonalEdgeStyle;rounded=0;exitX=1;exitY=0.5;exitDx=0;exitDy=0;fontSize=14;" edge="1" parent="1" source="Sc0OpXr11sxaCW_sMkfP-87">
          <mxGeometry x="-0.1667" relative="1" as="geometry">
            <mxPoint x="1630" y="721" as="sourcePoint" />
            <mxPoint x="1760" y="685" as="targetPoint" />
            <Array as="points" />
            <mxPoint as="offset" />
          </mxGeometry>
        </mxCell>
        <mxCell id="Sc0OpXr11sxaCW_sMkfP-89" value="1" style="edgeLabel;resizable=0;html=1;align=left;verticalAlign=top;" connectable="0" vertex="1" parent="Sc0OpXr11sxaCW_sMkfP-88">
          <mxGeometry x="-1" relative="1" as="geometry">
            <mxPoint x="5" y="-23" as="offset" />
          </mxGeometry>
        </mxCell>
        <mxCell id="Sc0OpXr11sxaCW_sMkfP-90" value="creates" style="edgeStyle=orthogonalEdgeStyle;rounded=0;orthogonalLoop=1;jettySize=auto;html=1;entryX=0.462;entryY=0.105;entryDx=0;entryDy=0;entryPerimeter=0;exitX=0.5;exitY=0;exitDx=0;exitDy=0;" edge="1" parent="1" source="Sc0OpXr11sxaCW_sMkfP-69" target="Sc0OpXr11sxaCW_sMkfP-82">
          <mxGeometry x="0.1675" y="-10" relative="1" as="geometry">
            <Array as="points">
              <mxPoint x="2050" y="520" />
              <mxPoint x="1237" y="520" />
            </Array>
            <mxPoint as="offset" />
          </mxGeometry>
        </mxCell>
        <mxCell id="5PZxO7IhgwgcGIbltrGD-43" value="loads offline store feature metadata" style="edgeStyle=orthogonalEdgeStyle;rounded=0;orthogonalLoop=1;jettySize=auto;html=1;entryX=0.5;entryY=1;entryDx=0;entryDy=0;fontSize=14;labelBackgroundColor=none;" edge="1" parent="1" source="Sc0OpXr11sxaCW_sMkfP-91" target="5PZxO7IhgwgcGIbltrGD-13">
          <mxGeometry x="-0.5443" y="-9" relative="1" as="geometry">
            <Array as="points">
              <mxPoint x="730" y="1199" />
            </Array>
            <mxPoint as="offset" />
          </mxGeometry>
        </mxCell>
        <mxCell id="Sc0OpXr11sxaCW_sMkfP-91" value="&lt;p style=&quot;margin: 0px; font-variant-numeric: normal; font-variant-east-asian: normal; font-variant-alternates: normal; font-size-adjust: none; font-kerning: auto; font-optical-sizing: auto; font-feature-settings: normal; font-variation-settings: normal; font-variant-position: normal; font-stretch: normal; line-height: normal; font-family: Menlo; text-align: start;&quot; class=&quot;p1&quot;&gt;&lt;font style=&quot;font-size: 11px;&quot;&gt;&lt;span style=&quot;font-variant-ligatures: no-common-ligatures; background-color: initial;&quot; class=&quot;Apple-converted-space&quot;&gt;&amp;nbsp;&lt;/span&gt;&lt;span style=&quot;font-variant-ligatures: no-common-ligatures; background-color: initial;&quot;&gt;Schema |&lt;/span&gt;&lt;span style=&quot;font-variant-ligatures: no-common-ligatures; background-color: initial;&quot; class=&quot;Apple-converted-space&quot;&gt;&amp;nbsp; &amp;nbsp; &amp;nbsp; &amp;nbsp; &amp;nbsp; &lt;/span&gt;&lt;span style=&quot;font-variant-ligatures: no-common-ligatures; background-color: initial;&quot;&gt;Name &lt;/span&gt;&lt;span style=&quot;font-variant-ligatures: no-common-ligatures; background-color: initial;&quot; class=&quot;Apple-converted-space&quot;&gt;&amp;nbsp; &amp;nbsp; &amp;nbsp; &amp;nbsp; &amp;nbsp; &lt;/span&gt;&lt;span style=&quot;font-variant-ligatures: no-common-ligatures; background-color: initial;&quot;&gt;| Type&lt;/span&gt;&lt;span style=&quot;font-variant-ligatures: no-common-ligatures; background-color: initial;&quot; class=&quot;Apple-converted-space&quot;&gt;&amp;nbsp; &lt;/span&gt;&lt;span style=&quot;font-variant-ligatures: no-common-ligatures; background-color: initial;&quot;&gt;|&lt;/span&gt;&lt;span style=&quot;font-variant-ligatures: no-common-ligatures; background-color: initial;&quot; class=&quot;Apple-converted-space&quot;&gt;&amp;nbsp; &lt;/span&gt;&lt;span style=&quot;font-variant-ligatures: no-common-ligatures; background-color: initial;&quot;&gt;Owner&lt;/span&gt;&lt;span style=&quot;font-variant-ligatures: no-common-ligatures; background-color: initial;&quot; class=&quot;Apple-converted-space&quot;&gt;&amp;nbsp; &amp;nbsp;&lt;/span&gt;&lt;br&gt;&lt;/font&gt;&lt;/p&gt;&lt;p style=&quot;margin: 0px; font-variant-numeric: normal; font-variant-east-asian: normal; font-variant-alternates: normal; font-size-adjust: none; font-kerning: auto; font-optical-sizing: auto; font-feature-settings: normal; font-variation-settings: normal; font-variant-position: normal; font-stretch: normal; line-height: normal; font-family: Menlo; text-align: start;&quot; class=&quot;p1&quot;&gt;&lt;span style=&quot;font-variant-ligatures: no-common-ligatures;&quot; class=&quot;s1&quot;&gt;&lt;font style=&quot;font-size: 11px;&quot;&gt;--------+-------------------------+-------+----------&lt;/font&gt;&lt;/span&gt;&lt;/p&gt;&lt;p style=&quot;margin: 0px; font-variant-numeric: normal; font-variant-east-asian: normal; font-variant-alternates: normal; font-size-adjust: none; font-kerning: auto; font-optical-sizing: auto; font-feature-settings: normal; font-variation-settings: normal; font-variant-position: normal; font-stretch: normal; line-height: normal; font-family: Menlo; text-align: start;&quot; class=&quot;p1&quot;&gt;&lt;span style=&quot;font-variant-ligatures: no-common-ligatures;&quot; class=&quot;s1&quot;&gt;&lt;font style=&quot;font-size: 11px;&quot;&gt;&lt;span class=&quot;Apple-converted-space&quot;&gt;&lt;span style=&quot;background-color: initial;&quot; class=&quot;Apple-converted-space&quot;&gt;&amp;nbsp;&lt;/span&gt;&lt;span style=&quot;background-color: initial;&quot;&gt;public | projects&lt;/span&gt;&lt;span style=&quot;background-color: initial;&quot; class=&quot;Apple-converted-space&quot;&gt;&amp;nbsp; &amp;nbsp; &amp;nbsp; &amp;nbsp; &amp;nbsp; &amp;nbsp; &amp;nbsp; &amp;nbsp;&amp;nbsp;&lt;/span&gt;&lt;span style=&quot;background-color: initial;&quot;&gt;| table | owner&lt;/span&gt;&lt;/span&gt;&lt;/font&gt;&lt;/span&gt;&lt;/p&gt;&lt;p style=&quot;margin: 0px; font-variant-numeric: normal; font-variant-east-asian: normal; font-variant-alternates: normal; font-size-adjust: none; font-kerning: auto; font-optical-sizing: auto; font-feature-settings: normal; font-variation-settings: normal; font-variant-position: normal; font-stretch: normal; line-height: normal; font-family: Menlo; text-align: start;&quot; class=&quot;p1&quot;&gt;&lt;span style=&quot;font-variant-ligatures: no-common-ligatures;&quot; class=&quot;s1&quot;&gt;&lt;font style=&quot;font-size: 11px;&quot;&gt;&lt;span class=&quot;Apple-converted-space&quot;&gt;&amp;nbsp;&lt;/span&gt;public | data_sources&lt;span class=&quot;Apple-converted-space&quot;&gt;&amp;nbsp; &amp;nbsp; &amp;nbsp; &amp;nbsp; &amp;nbsp; &amp;nbsp; &lt;/span&gt;| table | owner&lt;/font&gt;&lt;/span&gt;&lt;/p&gt;&lt;p style=&quot;margin: 0px; font-variant-numeric: normal; font-variant-east-asian: normal; font-variant-alternates: normal; font-size-adjust: none; font-kerning: auto; font-optical-sizing: auto; font-feature-settings: normal; font-variation-settings: normal; font-variant-position: normal; font-stretch: normal; line-height: normal; font-family: Menlo; text-align: start;&quot; class=&quot;p1&quot;&gt;&lt;span style=&quot;font-variant-ligatures: no-common-ligatures;&quot; class=&quot;s1&quot;&gt;&lt;font style=&quot;font-size: 11px;&quot;&gt;&lt;span class=&quot;Apple-converted-space&quot;&gt;&amp;nbsp;&lt;/span&gt;public | entities&lt;span class=&quot;Apple-converted-space&quot;&gt;&amp;nbsp; &amp;nbsp; &amp;nbsp; &amp;nbsp; &amp;nbsp; &amp;nbsp; &amp;nbsp; &amp;nbsp; &lt;/span&gt;| table | owner&lt;/font&gt;&lt;/span&gt;&lt;/p&gt;&lt;p style=&quot;margin: 0px; font-variant-numeric: normal; font-variant-east-asian: normal; font-variant-alternates: normal; font-size-adjust: none; font-kerning: auto; font-optical-sizing: auto; font-feature-settings: normal; font-variation-settings: normal; font-variant-position: normal; font-stretch: normal; line-height: normal; font-family: Menlo; text-align: start;&quot; class=&quot;p1&quot;&gt;&lt;span style=&quot;font-size: 11px; font-variant-ligatures: no-common-ligatures; background-color: initial;&quot; class=&quot;Apple-converted-space&quot;&gt;&amp;nbsp;&lt;/span&gt;&lt;span style=&quot;font-size: 11px; font-variant-ligatures: no-common-ligatures; background-color: initial;&quot;&gt;public | feature_views&amp;nbsp;&lt;/span&gt;&lt;span style=&quot;font-size: 11px; font-variant-ligatures: no-common-ligatures; background-color: initial;&quot; class=&quot;Apple-converted-space&quot;&gt;&amp;nbsp; &amp;nbsp; &amp;nbsp; &amp;nbsp; &amp;nbsp;&amp;nbsp;&lt;/span&gt;&lt;span style=&quot;font-size: 11px; font-variant-ligatures: no-common-ligatures; background-color: initial;&quot;&gt;| table |&amp;nbsp;&lt;/span&gt;&lt;span style=&quot;font-size: 11px; font-variant-ligatures: no-common-ligatures; background-color: initial;&quot;&gt;owner&lt;/span&gt;&lt;br&gt;&lt;/p&gt;&lt;p style=&quot;font-variant-numeric: normal; font-variant-east-asian: normal; font-variant-alternates: normal; font-size-adjust: none; font-kerning: auto; font-optical-sizing: auto; font-feature-settings: normal; font-variation-settings: normal; font-variant-position: normal; font-stretch: normal; line-height: normal; font-family: Menlo; margin: 0px; text-align: start;&quot; class=&quot;p1&quot;&gt;&lt;span style=&quot;font-variant-ligatures: no-common-ligatures;&quot; class=&quot;s1&quot;&gt;&lt;font style=&quot;font-size: 11px;&quot;&gt;&lt;span class=&quot;Apple-converted-space&quot;&gt;&amp;nbsp;&lt;/span&gt;public | feast_metadata&lt;span class=&quot;Apple-converted-space&quot;&gt;&amp;nbsp; &amp;nbsp; &amp;nbsp; &amp;nbsp; &amp;nbsp;&amp;nbsp;&lt;/span&gt;| table |&amp;nbsp;&lt;/font&gt;&lt;/span&gt;&lt;span style=&quot;font-size: 11px; font-variant-ligatures: no-common-ligatures; background-color: initial;&quot;&gt;owner&lt;/span&gt;&lt;/p&gt;&lt;p style=&quot;font-variant-numeric: normal; font-variant-east-asian: normal; font-variant-alternates: normal; font-size-adjust: none; font-kerning: auto; font-optical-sizing: auto; font-feature-settings: normal; font-variation-settings: normal; font-variant-position: normal; font-stretch: normal; line-height: normal; font-family: Menlo; margin: 0px; text-align: start;&quot; class=&quot;p1&quot;&gt;&lt;span style=&quot;font-size: 11px; font-variant-ligatures: no-common-ligatures; background-color: initial;&quot; class=&quot;Apple-converted-space&quot;&gt;&amp;nbsp;&lt;/span&gt;&lt;span style=&quot;font-size: 11px; font-variant-ligatures: no-common-ligatures; background-color: initial;&quot;&gt;public | on_demand_feature_views | table |&amp;nbsp;&lt;/span&gt;&lt;span style=&quot;font-size: 11px; font-variant-ligatures: no-common-ligatures; background-color: initial;&quot;&gt;owner&lt;/span&gt;&lt;br&gt;&lt;/p&gt;&lt;p style=&quot;margin: 0px; font-variant-numeric: normal; font-variant-east-asian: normal; font-variant-alternates: normal; font-size-adjust: none; font-kerning: auto; font-optical-sizing: auto; font-feature-settings: normal; font-variation-settings: normal; font-variant-position: normal; font-stretch: normal; line-height: normal; font-family: Menlo; text-align: start;&quot; class=&quot;p1&quot;&gt;&lt;span style=&quot;font-variant-ligatures: no-common-ligatures;&quot; class=&quot;s1&quot;&gt;&lt;font style=&quot;font-size: 11px;&quot;&gt;&lt;span class=&quot;Apple-converted-space&quot;&gt;&amp;nbsp;&lt;/span&gt;public | feature_services&lt;span class=&quot;Apple-converted-space&quot;&gt;&amp;nbsp; &amp;nbsp; &amp;nbsp; &amp;nbsp; &lt;/span&gt;| table |&amp;nbsp;&lt;/font&gt;&lt;/span&gt;&lt;span style=&quot;font-size: 11px; font-variant-ligatures: no-common-ligatures; background-color: initial;&quot;&gt;owner&lt;/span&gt;&lt;/p&gt;&lt;p style=&quot;margin: 0px; font-variant-numeric: normal; font-variant-east-asian: normal; font-variant-alternates: normal; font-size-adjust: none; font-kerning: auto; font-optical-sizing: auto; font-feature-settings: normal; font-variation-settings: normal; font-variant-position: normal; font-stretch: normal; line-height: normal; font-family: Menlo; text-align: start;&quot; class=&quot;p1&quot;&gt;&lt;span style=&quot;font-size: 11px; font-variant-ligatures: no-common-ligatures; background-color: initial;&quot; class=&quot;Apple-converted-space&quot;&gt;&amp;nbsp;&lt;/span&gt;&lt;span style=&quot;font-size: 11px; font-variant-ligatures: no-common-ligatures; background-color: initial;&quot;&gt;public | permissions &lt;/span&gt;&lt;span style=&quot;font-size: 11px; font-variant-ligatures: no-common-ligatures; background-color: initial;&quot; class=&quot;Apple-converted-space&quot;&gt;&amp;nbsp; &amp;nbsp; &amp;nbsp; &amp;nbsp; &amp;nbsp; &amp;nbsp; &lt;/span&gt;&lt;span style=&quot;font-size: 11px; font-variant-ligatures: no-common-ligatures; background-color: initial;&quot;&gt;| table |&amp;nbsp;&lt;/span&gt;&lt;span style=&quot;font-size: 11px; font-variant-ligatures: no-common-ligatures; background-color: initial;&quot;&gt;owner&lt;/span&gt;&lt;br&gt;&lt;/p&gt;&lt;p style=&quot;margin: 0px; font-variant-numeric: normal; font-variant-east-asian: normal; font-variant-alternates: normal; font-size-adjust: none; font-kerning: auto; font-optical-sizing: auto; font-feature-settings: normal; font-variation-settings: normal; font-variant-position: normal; font-stretch: normal; line-height: normal; font-family: Menlo; text-align: start;&quot; class=&quot;p1&quot;&gt;&lt;br&gt;&lt;/p&gt;" style="shape=cylinder3;whiteSpace=wrap;html=1;boundedLbl=1;backgroundOutline=1;size=14.517241379310462;fillColor=none;verticalAlign=bottom;" vertex="1" parent="1">
          <mxGeometry x="1045" y="1099" width="400" height="200" as="geometry" />
        </mxCell>
        <mxCell id="Sc0OpXr11sxaCW_sMkfP-94" value="updates" style="edgeStyle=orthogonalEdgeStyle;rounded=0;orthogonalLoop=1;jettySize=auto;html=1;fontSize=14;" edge="1" parent="1" source="Sc0OpXr11sxaCW_sMkfP-92" target="Sc0OpXr11sxaCW_sMkfP-91">
          <mxGeometry relative="1" as="geometry" />
        </mxCell>
        <mxCell id="Sc0OpXr11sxaCW_sMkfP-92" value="FEAST&lt;div&gt;SDK&lt;/div&gt;" style="shape=process;whiteSpace=wrap;html=1;backgroundOutline=1;fontSize=14;" vertex="1" parent="1">
          <mxGeometry x="1185" y="1010" width="120" height="60" as="geometry" />
        </mxCell>
        <mxCell id="Sc0OpXr11sxaCW_sMkfP-96" value="FEAST Registry Database" style="text;html=1;align=center;verticalAlign=middle;resizable=0;points=[];autosize=1;strokeColor=none;fillColor=none;fontSize=14;" vertex="1" parent="1">
          <mxGeometry x="1150" y="1099" width="190" height="30" as="geometry" />
        </mxCell>
        <mxCell id="5PZxO7IhgwgcGIbltrGD-15" style="edgeStyle=orthogonalEdgeStyle;rounded=0;orthogonalLoop=1;jettySize=auto;html=1;entryX=1;entryY=0.5;entryDx=0;entryDy=0;" edge="1" parent="1" source="r-SpZNXV1N5mquiX6yRM-1" target="5PZxO7IhgwgcGIbltrGD-13">
          <mxGeometry relative="1" as="geometry" />
        </mxCell>
        <mxCell id="r-SpZNXV1N5mquiX6yRM-1" value="FeatureService" style="swimlane;fontStyle=1;align=center;verticalAlign=top;childLayout=stackLayout;horizontal=1;startSize=26;horizontalStack=0;resizeParent=1;resizeParentMax=0;resizeLast=0;collapsible=1;marginBottom=0;fontSize=14;" vertex="1" parent="1">
          <mxGeometry x="861" y="620" width="160" height="104" as="geometry" />
        </mxCell>
        <mxCell id="r-SpZNXV1N5mquiX6yRM-2" value="+ name" style="text;strokeColor=none;fillColor=none;align=left;verticalAlign=top;spacingLeft=4;spacingRight=4;overflow=hidden;rotatable=0;points=[[0,0.5],[1,0.5]];portConstraint=eastwest;" vertex="1" parent="r-SpZNXV1N5mquiX6yRM-1">
          <mxGeometry y="26" width="160" height="26" as="geometry" />
        </mxCell>
        <mxCell id="nLNEYRvcfe6MTiKfXkZc-2" value="&lt;b&gt;&lt;font color=&quot;#ff0000&quot;&gt;+ version&lt;/font&gt;&lt;/b&gt;" style="text;strokeColor=none;fillColor=none;align=left;verticalAlign=top;spacingLeft=4;spacingRight=4;overflow=hidden;rotatable=0;points=[[0,0.5],[1,0.5]];portConstraint=eastwest;whiteSpace=wrap;html=1;" vertex="1" parent="r-SpZNXV1N5mquiX6yRM-1">
          <mxGeometry y="52" width="160" height="26" as="geometry" />
        </mxCell>
        <mxCell id="r-SpZNXV1N5mquiX6yRM-3" value="+ features" style="text;strokeColor=none;fillColor=none;align=left;verticalAlign=top;spacingLeft=4;spacingRight=4;overflow=hidden;rotatable=0;points=[[0,0.5],[1,0.5]];portConstraint=eastwest;" vertex="1" parent="r-SpZNXV1N5mquiX6yRM-1">
          <mxGeometry y="78" width="160" height="26" as="geometry" />
        </mxCell>
        <mxCell id="r-SpZNXV1N5mquiX6yRM-4" value="aggregates &lt;br&gt;Feature Views" style="endArrow=open;html=1;endSize=12;startArrow=none;startSize=14;startFill=0;edgeStyle=orthogonalEdgeStyle;rounded=0;fontSize=14;labelBackgroundColor=none;" edge="1" parent="1" source="r-SpZNXV1N5mquiX6yRM-1">
          <mxGeometry x="-0.0101" y="19" relative="1" as="geometry">
            <mxPoint x="960" y="620" as="sourcePoint" />
            <mxPoint x="1120" y="659" as="targetPoint" />
            <Array as="points">
              <mxPoint x="950" y="659" />
              <mxPoint x="1120" y="660" />
            </Array>
            <mxPoint as="offset" />
          </mxGeometry>
        </mxCell>
        <mxCell id="r-SpZNXV1N5mquiX6yRM-5" value="1" style="edgeLabel;resizable=0;html=1;align=left;verticalAlign=top;" connectable="0" vertex="1" parent="r-SpZNXV1N5mquiX6yRM-4">
          <mxGeometry x="-1" relative="1" as="geometry">
            <mxPoint x="5" as="offset" />
          </mxGeometry>
        </mxCell>
        <mxCell id="r-SpZNXV1N5mquiX6yRM-6" value="1..n" style="edgeLabel;resizable=0;html=1;align=right;verticalAlign=top;" connectable="0" vertex="1" parent="r-SpZNXV1N5mquiX6yRM-4">
          <mxGeometry x="1" relative="1" as="geometry">
            <mxPoint x="-10" as="offset" />
          </mxGeometry>
        </mxCell>
        <mxCell id="nLNEYRvcfe6MTiKfXkZc-1" value="" style="endArrow=none;dashed=1;html=1;dashPattern=1 3;strokeWidth=2;rounded=0;" edge="1" parent="1">
          <mxGeometry width="50" height="50" relative="1" as="geometry">
            <mxPoint x="2140" y="1360" as="sourcePoint" />
            <mxPoint x="2140" y="400" as="targetPoint" />
          </mxGeometry>
        </mxCell>
        <mxCell id="2ClfJQOtF01GB0jchylZ-1" value="Feature Registration" style="text;html=1;align=center;verticalAlign=middle;resizable=0;points=[];autosize=1;strokeColor=none;fillColor=none;fontSize=20;" vertex="1" parent="1">
          <mxGeometry x="1220" y="460" width="200" height="40" as="geometry" />
        </mxCell>
        <mxCell id="2ClfJQOtF01GB0jchylZ-2" value="" style="endArrow=none;dashed=1;html=1;dashPattern=1 3;strokeWidth=2;rounded=0;" edge="1" parent="1">
          <mxGeometry width="50" height="50" relative="1" as="geometry">
            <mxPoint x="830" y="1360" as="sourcePoint" />
            <mxPoint x="830" y="400" as="targetPoint" />
          </mxGeometry>
        </mxCell>
        <mxCell id="vg-5fRfU_2VOtUV-wwCq-1" value="&lt;ul&gt;&lt;li style=&quot;&quot;&gt;&lt;font style=&quot;font-size: 14px;&quot;&gt;File (localS3)&lt;/font&gt;&lt;/li&gt;&lt;li style=&quot;&quot;&gt;&lt;font style=&quot;font-size: 14px;&quot;&gt;Snowflake&lt;/font&gt;&lt;/li&gt;&lt;li style=&quot;&quot;&gt;&lt;font style=&quot;font-size: 14px;&quot;&gt;Terradata&lt;/font&gt;&lt;/li&gt;&lt;li style=&quot;&quot;&gt;&lt;font style=&quot;font-size: 14px;&quot;&gt;RedShift&lt;/font&gt;&lt;/li&gt;&lt;li style=&quot;&quot;&gt;&lt;font style=&quot;font-size: 14px;&quot;&gt;Athena&lt;/font&gt;&lt;/li&gt;&lt;li style=&quot;&quot;&gt;&lt;font style=&quot;font-size: 14px;&quot;&gt;Spark&lt;/font&gt;&lt;/li&gt;&lt;/ul&gt;" style="text;html=1;align=left;verticalAlign=middle;resizable=0;points=[];autosize=1;strokeColor=none;fillColor=none;fontSize=20;" vertex="1" parent="1">
          <mxGeometry x="1840" y="780" width="150" height="200" as="geometry" />
        </mxCell>
        <mxCell id="vg-5fRfU_2VOtUV-wwCq-13" style="edgeStyle=orthogonalEdgeStyle;rounded=0;orthogonalLoop=1;jettySize=auto;html=1;entryX=1;entryY=0.5;entryDx=0;entryDy=0;exitX=0.5;exitY=0;exitDx=0;exitDy=0;" edge="1" parent="1" source="vg-5fRfU_2VOtUV-wwCq-2" target="Sc0OpXr11sxaCW_sMkfP-92">
          <mxGeometry relative="1" as="geometry">
            <Array as="points">
              <mxPoint x="1605" y="1040" />
            </Array>
          </mxGeometry>
        </mxCell>
        <mxCell id="vg-5fRfU_2VOtUV-wwCq-14" value="reads" style="edgeLabel;html=1;align=center;verticalAlign=middle;resizable=0;points=[];fontSize=14;" vertex="1" connectable="0" parent="vg-5fRfU_2VOtUV-wwCq-13">
          <mxGeometry x="-0.0915" relative="1" as="geometry">
            <mxPoint x="-165" y="-20" as="offset" />
          </mxGeometry>
        </mxCell>
        <mxCell id="vg-5fRfU_2VOtUV-wwCq-2" value="feature_store.yaml" style="swimlane;fontStyle=1;align=center;verticalAlign=top;childLayout=stackLayout;horizontal=1;startSize=26;horizontalStack=0;resizeParent=1;resizeParentMax=0;resizeLast=0;collapsible=1;marginBottom=0;fontSize=14;" vertex="1" parent="1">
          <mxGeometry x="1520" y="1108" width="170" height="156" as="geometry" />
        </mxCell>
        <mxCell id="vg-5fRfU_2VOtUV-wwCq-3" value="+ project" style="text;strokeColor=none;fillColor=none;align=left;verticalAlign=top;spacingLeft=4;spacingRight=4;overflow=hidden;rotatable=0;points=[[0,0.5],[1,0.5]];portConstraint=eastwest;" vertex="1" parent="vg-5fRfU_2VOtUV-wwCq-2">
          <mxGeometry y="26" width="170" height="26" as="geometry" />
        </mxCell>
        <mxCell id="vg-5fRfU_2VOtUV-wwCq-4" value="+ provider" style="text;strokeColor=none;fillColor=none;align=left;verticalAlign=top;spacingLeft=4;spacingRight=4;overflow=hidden;rotatable=0;points=[[0,0.5],[1,0.5]];portConstraint=eastwest;whiteSpace=wrap;html=1;fontColor=#000000;fontStyle=0" vertex="1" parent="vg-5fRfU_2VOtUV-wwCq-2">
          <mxGeometry y="52" width="170" height="26" as="geometry" />
        </mxCell>
        <mxCell id="vg-5fRfU_2VOtUV-wwCq-5" value="+ registry" style="text;strokeColor=none;fillColor=none;align=left;verticalAlign=top;spacingLeft=4;spacingRight=4;overflow=hidden;rotatable=0;points=[[0,0.5],[1,0.5]];portConstraint=eastwest;fontStyle=0;fontColor=#000000;" vertex="1" parent="vg-5fRfU_2VOtUV-wwCq-2">
          <mxGeometry y="78" width="170" height="26" as="geometry" />
        </mxCell>
        <mxCell id="vg-5fRfU_2VOtUV-wwCq-6" value="+ offline_store" style="text;strokeColor=none;fillColor=none;align=left;verticalAlign=top;spacingLeft=4;spacingRight=4;overflow=hidden;rotatable=0;points=[[0,0.5],[1,0.5]];portConstraint=eastwest;fontStyle=0;fontColor=#000000;" vertex="1" parent="vg-5fRfU_2VOtUV-wwCq-2">
          <mxGeometry y="104" width="170" height="26" as="geometry" />
        </mxCell>
        <mxCell id="vg-5fRfU_2VOtUV-wwCq-7" value="+ online_store" style="text;strokeColor=none;fillColor=none;align=left;verticalAlign=top;spacingLeft=4;spacingRight=4;overflow=hidden;rotatable=0;points=[[0,0.5],[1,0.5]];portConstraint=eastwest;" vertex="1" parent="vg-5fRfU_2VOtUV-wwCq-2">
          <mxGeometry y="130" width="170" height="26" as="geometry" />
        </mxCell>
        <mxCell id="vg-5fRfU_2VOtUV-wwCq-12" value="locates" style="edgeStyle=orthogonalEdgeStyle;rounded=0;orthogonalLoop=1;jettySize=auto;html=1;entryX=1;entryY=0.5;entryDx=0;entryDy=0;entryPerimeter=0;fontSize=14;" edge="1" parent="1" source="vg-5fRfU_2VOtUV-wwCq-5" target="Sc0OpXr11sxaCW_sMkfP-91">
          <mxGeometry x="0.0323" relative="1" as="geometry">
            <mxPoint as="offset" />
          </mxGeometry>
        </mxCell>
        <mxCell id="5PZxO7IhgwgcGIbltrGD-8" value="Feature Consumption" style="text;html=1;align=center;verticalAlign=middle;resizable=0;points=[];autosize=1;strokeColor=none;fillColor=none;fontSize=20;" vertex="1" parent="1">
          <mxGeometry x="395" y="460" width="220" height="40" as="geometry" />
        </mxCell>
        <mxCell id="5PZxO7IhgwgcGIbltrGD-28" value="(FEAST get_historical_data method)" style="edgeStyle=orthogonalEdgeStyle;rounded=0;orthogonalLoop=1;jettySize=auto;html=1;entryX=0.5;entryY=0;entryDx=0;entryDy=0;fontSize=14;" edge="1" parent="1" source="5PZxO7IhgwgcGIbltrGD-10" target="5PZxO7IhgwgcGIbltrGD-13">
          <mxGeometry x="-0.0448" relative="1" as="geometry">
            <Array as="points">
              <mxPoint x="1845" y="390" />
              <mxPoint x="730" y="390" />
            </Array>
            <mxPoint as="offset" />
          </mxGeometry>
        </mxCell>
        <mxCell id="5PZxO7IhgwgcGIbltrGD-26" style="edgeStyle=orthogonalEdgeStyle;rounded=0;orthogonalLoop=1;jettySize=auto;html=1;" edge="1" parent="1" source="5PZxO7IhgwgcGIbltrGD-11" target="Sc0OpXr11sxaCW_sMkfP-69">
          <mxGeometry relative="1" as="geometry" />
        </mxCell>
        <mxCell id="5PZxO7IhgwgcGIbltrGD-51" value="consumes&amp;nbsp;&lt;div&gt;features&lt;/div&gt;" style="edgeStyle=orthogonalEdgeStyle;rounded=0;orthogonalLoop=1;jettySize=auto;html=1;fontSize=14;labelBackgroundColor=none;" edge="1" parent="1" source="5PZxO7IhgwgcGIbltrGD-13" target="5PZxO7IhgwgcGIbltrGD-48">
          <mxGeometry y="-22" relative="1" as="geometry">
            <mxPoint as="offset" />
          </mxGeometry>
        </mxCell>
        <mxCell id="5PZxO7IhgwgcGIbltrGD-13" value="FEAST&lt;div&gt;SDK&lt;/div&gt;" style="shape=process;whiteSpace=wrap;html=1;backgroundOutline=1;fontSize=14;" vertex="1" parent="1">
          <mxGeometry x="670" y="642" width="120" height="60" as="geometry" />
        </mxCell>
        <mxCell id="5PZxO7IhgwgcGIbltrGD-18" value="locates" style="edgeStyle=orthogonalEdgeStyle;rounded=0;orthogonalLoop=1;jettySize=auto;html=1;entryX=0.5;entryY=1;entryDx=0;entryDy=0;entryPerimeter=0;fontSize=14;" edge="1" parent="1" source="vg-5fRfU_2VOtUV-wwCq-6" target="5PZxO7IhgwgcGIbltrGD-10">
          <mxGeometry x="-0.759" relative="1" as="geometry">
            <mxPoint as="offset" />
          </mxGeometry>
        </mxCell>
        <mxCell id="5PZxO7IhgwgcGIbltrGD-27" style="edgeStyle=orthogonalEdgeStyle;rounded=0;orthogonalLoop=1;jettySize=auto;html=1;entryX=1;entryY=0.5;entryDx=0;entryDy=0;entryPerimeter=0;" edge="1" parent="1" source="Sc0OpXr11sxaCW_sMkfP-69" target="5PZxO7IhgwgcGIbltrGD-10">
          <mxGeometry relative="1" as="geometry" />
        </mxCell>
        <mxCell id="5PZxO7IhgwgcGIbltrGD-38" value="reads" style="edgeStyle=orthogonalEdgeStyle;rounded=0;orthogonalLoop=1;jettySize=auto;html=1;entryX=0.25;entryY=1;entryDx=0;entryDy=0;" edge="1" parent="1" source="5PZxO7IhgwgcGIbltrGD-32" target="5PZxO7IhgwgcGIbltrGD-13">
          <mxGeometry x="-0.4681" relative="1" as="geometry">
            <Array as="points">
              <mxPoint x="700" y="790" />
            </Array>
            <mxPoint as="offset" />
          </mxGeometry>
        </mxCell>
        <mxCell id="5PZxO7IhgwgcGIbltrGD-32" value="feature_store.yaml" style="swimlane;fontStyle=1;align=center;verticalAlign=top;childLayout=stackLayout;horizontal=1;startSize=26;horizontalStack=0;resizeParent=1;resizeParentMax=0;resizeLast=0;collapsible=1;marginBottom=0;fillStyle=solid;fontSize=14;" vertex="1" parent="1">
          <mxGeometry x="470" y="758" width="170" height="156" as="geometry" />
        </mxCell>
        <mxCell id="5PZxO7IhgwgcGIbltrGD-33" value="+ project" style="text;strokeColor=none;fillColor=none;align=left;verticalAlign=top;spacingLeft=4;spacingRight=4;overflow=hidden;rotatable=0;points=[[0,0.5],[1,0.5]];portConstraint=eastwest;" vertex="1" parent="5PZxO7IhgwgcGIbltrGD-32">
          <mxGeometry y="26" width="170" height="26" as="geometry" />
        </mxCell>
        <mxCell id="5PZxO7IhgwgcGIbltrGD-34" value="+ provider" style="text;strokeColor=none;fillColor=none;align=left;verticalAlign=top;spacingLeft=4;spacingRight=4;overflow=hidden;rotatable=0;points=[[0,0.5],[1,0.5]];portConstraint=eastwest;whiteSpace=wrap;html=1;fontColor=#000000;fontStyle=0" vertex="1" parent="5PZxO7IhgwgcGIbltrGD-32">
          <mxGeometry y="52" width="170" height="26" as="geometry" />
        </mxCell>
        <mxCell id="5PZxO7IhgwgcGIbltrGD-35" value="+ registry" style="text;strokeColor=none;fillColor=none;align=left;verticalAlign=top;spacingLeft=4;spacingRight=4;overflow=hidden;rotatable=0;points=[[0,0.5],[1,0.5]];portConstraint=eastwest;fontStyle=0;fontColor=#000000;" vertex="1" parent="5PZxO7IhgwgcGIbltrGD-32">
          <mxGeometry y="78" width="170" height="26" as="geometry" />
        </mxCell>
        <mxCell id="5PZxO7IhgwgcGIbltrGD-36" value="+ offline_store" style="text;strokeColor=none;fillColor=none;align=left;verticalAlign=top;spacingLeft=4;spacingRight=4;overflow=hidden;rotatable=0;points=[[0,0.5],[1,0.5]];portConstraint=eastwest;fontStyle=0;fontColor=#000000;" vertex="1" parent="5PZxO7IhgwgcGIbltrGD-32">
          <mxGeometry y="104" width="170" height="26" as="geometry" />
        </mxCell>
        <mxCell id="5PZxO7IhgwgcGIbltrGD-37" value="+ online_store" style="text;strokeColor=none;fillColor=none;align=left;verticalAlign=top;spacingLeft=4;spacingRight=4;overflow=hidden;rotatable=0;points=[[0,0.5],[1,0.5]];portConstraint=eastwest;" vertex="1" parent="5PZxO7IhgwgcGIbltrGD-32">
          <mxGeometry y="130" width="170" height="26" as="geometry" />
        </mxCell>
        <mxCell id="5PZxO7IhgwgcGIbltrGD-42" value="locates" style="edgeStyle=orthogonalEdgeStyle;rounded=0;orthogonalLoop=1;jettySize=auto;html=1;entryX=0;entryY=0.707;entryDx=0;entryDy=0;entryPerimeter=0;" edge="1" parent="1" source="5PZxO7IhgwgcGIbltrGD-35" target="Sc0OpXr11sxaCW_sMkfP-91">
          <mxGeometry x="-0.8739" relative="1" as="geometry">
            <mxPoint x="1030" y="1240" as="targetPoint" />
            <Array as="points">
              <mxPoint x="700" y="851" />
              <mxPoint x="700" y="1240" />
              <mxPoint x="1030" y="1240" />
            </Array>
            <mxPoint as="offset" />
          </mxGeometry>
        </mxCell>
        <mxCell id="5PZxO7IhgwgcGIbltrGD-44" value="Model Version" style="swimlane;fontStyle=1;align=center;verticalAlign=top;childLayout=stackLayout;horizontal=1;startSize=26;horizontalStack=0;resizeParent=1;resizeParentMax=0;resizeLast=0;collapsible=1;marginBottom=0;fillStyle=solid;fontSize=14;" vertex="1" parent="1">
          <mxGeometry x="285" y="620" width="160" height="104" as="geometry" />
        </mxCell>
        <mxCell id="5PZxO7IhgwgcGIbltrGD-45" value="+ name" style="text;strokeColor=none;fillColor=none;align=left;verticalAlign=top;spacingLeft=4;spacingRight=4;overflow=hidden;rotatable=0;points=[[0,0.5],[1,0.5]];portConstraint=eastwest;" vertex="1" parent="5PZxO7IhgwgcGIbltrGD-44">
          <mxGeometry y="26" width="160" height="26" as="geometry" />
        </mxCell>
        <mxCell id="5PZxO7IhgwgcGIbltrGD-46" value="+ version" style="text;strokeColor=none;fillColor=none;align=left;verticalAlign=top;spacingLeft=4;spacingRight=4;overflow=hidden;rotatable=0;points=[[0,0.5],[1,0.5]];portConstraint=eastwest;fontStyle=1;fontColor=#FF0000;" vertex="1" parent="5PZxO7IhgwgcGIbltrGD-44">
          <mxGeometry y="52" width="160" height="26" as="geometry" />
        </mxCell>
        <mxCell id="5PZxO7IhgwgcGIbltrGD-47" value="+ features" style="text;strokeColor=none;fillColor=none;align=left;verticalAlign=top;spacingLeft=4;spacingRight=4;overflow=hidden;rotatable=0;points=[[0,0.5],[1,0.5]];portConstraint=eastwest;" vertex="1" parent="5PZxO7IhgwgcGIbltrGD-44">
          <mxGeometry y="78" width="160" height="26" as="geometry" />
        </mxCell>
        <mxCell id="5PZxO7IhgwgcGIbltrGD-50" value="" style="edgeStyle=orthogonalEdgeStyle;rounded=0;orthogonalLoop=1;jettySize=auto;html=1;" edge="1" parent="1" source="5PZxO7IhgwgcGIbltrGD-48" target="5PZxO7IhgwgcGIbltrGD-44">
          <mxGeometry relative="1" as="geometry" />
        </mxCell>
        <mxCell id="5PZxO7IhgwgcGIbltrGD-48" value="Model Training or&amp;nbsp;&lt;br&gt;Inference" style="shape=process;whiteSpace=wrap;html=1;backgroundOutline=1;fontSize=14;" vertex="1" parent="1">
          <mxGeometry x="470" y="642" width="120" height="60" as="geometry" />
        </mxCell>
        <mxCell id="5PZxO7IhgwgcGIbltrGD-53" value="&lt;span style=&quot;color: rgb(0, 0, 0); font-family: Helvetica; font-size: 20px; font-style: normal; font-variant-ligatures: normal; font-variant-caps: normal; font-weight: 400; letter-spacing: normal; orphans: 2; text-align: center; text-indent: 0px; text-transform: none; widows: 2; word-spacing: 0px; -webkit-text-stroke-width: 0px; white-space: nowrap; text-decoration-thickness: initial; text-decoration-style: initial; text-decoration-color: initial; float: none; display: inline !important;&quot;&gt;Feature Engineering&lt;/span&gt;" style="text;whiteSpace=wrap;html=1;" vertex="1" parent="1">
          <mxGeometry x="1890" y="455" width="210" height="50" as="geometry" />
        </mxCell>
        <mxCell id="5PZxO7IhgwgcGIbltrGD-55" value="Feature Producer (Data Lab)" style="text;html=1;align=center;verticalAlign=middle;resizable=0;points=[];autosize=1;strokeColor=none;fillColor=none;fontSize=20;" vertex="1" parent="1">
          <mxGeometry x="1340" y="1320" width="280" height="40" as="geometry" />
        </mxCell>
        <mxCell id="5PZxO7IhgwgcGIbltrGD-56" value="Raw Data Owner" style="text;html=1;align=center;verticalAlign=middle;resizable=0;points=[];autosize=1;strokeColor=none;fillColor=none;fontSize=20;" vertex="1" parent="1">
          <mxGeometry x="2170" y="1320" width="180" height="40" as="geometry" />
        </mxCell>
        <mxCell id="5PZxO7IhgwgcGIbltrGD-57" value="Feature Consumer (MTP/MEP)" style="text;html=1;align=center;verticalAlign=middle;resizable=0;points=[];autosize=1;strokeColor=none;fillColor=none;fontSize=20;" vertex="1" parent="1">
          <mxGeometry x="370" y="1320" width="300" height="40" as="geometry" />
        </mxCell>
        <mxCell id="5PZxO7IhgwgcGIbltrGD-62" value="&lt;span data-teams=&quot;true&quot;&gt;An important pre-requisite of FEAST is a &lt;b&gt;Time-Series Data Model&lt;/b&gt; to represent data.&lt;/span&gt;" style="shape=note;strokeWidth=2;fontSize=14;size=20;whiteSpace=wrap;html=1;fillColor=#f8cecc;strokeColor=#b85450;align=left;" vertex="1" parent="1">
          <mxGeometry x="1770" y="990" width="320" height="60" as="geometry" />
        </mxCell>
        <mxCell id="5PZxO7IhgwgcGIbltrGD-63" value="" style="endArrow=classic;html=1;rounded=0;strokeColor=#FF3333;dashed=1;" edge="1" parent="1" source="rPGenpK2kSjcpJSA2cuz-4">
          <mxGeometry width="50" height="50" relative="1" as="geometry">
            <mxPoint x="1480" y="1030" as="sourcePoint" />
            <mxPoint x="1924" y="735" as="targetPoint" />
          </mxGeometry>
        </mxCell>
        <mxCell id="5PZxO7IhgwgcGIbltrGD-65" value="Raw Data" style="text;html=1;align=center;verticalAlign=middle;resizable=0;points=[];autosize=1;strokeColor=none;fillColor=none;fontSize=20;" vertex="1" parent="1">
          <mxGeometry x="2205" y="455" width="110" height="40" as="geometry" />
        </mxCell>
        <mxCell id="rPGenpK2kSjcpJSA2cuz-1" value="" style="shape=flexArrow;endArrow=classic;html=1;rounded=0;fontSize=15;fillColor=#999999;strokeColor=none;" edge="1" parent="1">
          <mxGeometry width="50" height="50" relative="1" as="geometry">
            <mxPoint x="2360" y="360" as="sourcePoint" />
            <mxPoint x="260" y="360" as="targetPoint" />
          </mxGeometry>
        </mxCell>
        <mxCell id="rPGenpK2kSjcpJSA2cuz-2" value="&lt;span data-teams=&quot;true&quot;&gt;Registry Database has Meta Data Only.&amp;nbsp;&lt;/span&gt;&lt;div&gt;&lt;span data-teams=&quot;true&quot;&gt;There is no actual data.&lt;/span&gt;&lt;/div&gt;" style="shape=note;strokeWidth=2;fontSize=14;size=20;whiteSpace=wrap;html=1;fillColor=#f8cecc;strokeColor=#b85450;" vertex="1" parent="1">
          <mxGeometry x="880" y="990" width="260" height="70" as="geometry" />
        </mxCell>
        <mxCell id="rPGenpK2kSjcpJSA2cuz-3" value="" style="endArrow=classic;html=1;rounded=0;strokeColor=#FF3333;dashed=1;exitX=0.771;exitY=0.993;exitDx=0;exitDy=0;exitPerimeter=0;" edge="1" parent="1" source="rPGenpK2kSjcpJSA2cuz-2" target="Sc0OpXr11sxaCW_sMkfP-91">
          <mxGeometry width="50" height="50" relative="1" as="geometry">
            <mxPoint x="1685" y="500" as="sourcePoint" />
            <mxPoint x="1834" y="673" as="targetPoint" />
          </mxGeometry>
        </mxCell>
        <mxCell id="rPGenpK2kSjcpJSA2cuz-4" value="Focus is on &lt;b&gt;Features for Model&lt;/b&gt; &lt;b&gt;Consumption&lt;/b&gt;&lt;div&gt;not the raw data so that Data science community can reuse to shorten model developments.&lt;/div&gt;" style="shape=note;strokeWidth=2;fontSize=14;size=20;whiteSpace=wrap;html=1;fillColor=#f8cecc;strokeColor=#b85450;align=left;" vertex="1" parent="1">
          <mxGeometry x="1991" y="856" width="350" height="70" as="geometry" />
        </mxCell>
        <mxCell id="rPGenpK2kSjcpJSA2cuz-5" value="" style="endArrow=classic;html=1;rounded=0;strokeColor=#FF3333;dashed=1;" edge="1" parent="1" source="5PZxO7IhgwgcGIbltrGD-62">
          <mxGeometry width="50" height="50" relative="1" as="geometry">
            <mxPoint x="2033" y="970" as="sourcePoint" />
            <mxPoint x="1886" y="758" as="targetPoint" />
          </mxGeometry>
        </mxCell>
        <mxCell id="rPGenpK2kSjcpJSA2cuz-6" value="" style="endArrow=classic;html=1;rounded=0;strokeColor=#FF3333;dashed=1;" edge="1" parent="1">
          <mxGeometry width="50" height="50" relative="1" as="geometry">
            <mxPoint x="2195" y="851" as="sourcePoint" />
            <mxPoint x="2246" y="715" as="targetPoint" />
          </mxGeometry>
        </mxCell>
      </root>
    </mxGraphModel>
  </diagram>
</mxfile>
